<?xml version="1.0" encoding="UTF-8" standalone="no"?>
<svg
   xmlns:svg="http://www.w3.org/2000/svg"
   xmlns="http://www.w3.org/2000/svg"
   viewBox="0 0 1100 750"
   preserveAspectRatio="none">
  <g transform="translate(0,-200)" style="fill:#f4a495">
    <path
       d="m 310.8,516.0 c 0,-0.7 -0.2,-1.2 -0.5,-1.0 -0.2,0.1 -0.9,-0.5 -1.3,-1.6 -0.4,-1.1 -1.2,-1.9 -1.7,-1.9 -0.7,0 -0.7,-0.1 -0.2,-0.7 0.4,-0.5 0.4,-0.8 -0.0,-1.0 -0.5,-0.1 -0.5,-0.4 0.1,-1.2 0.6,-0.7 0.6,-1.0 0.1,-1.2 -0.3,-0.1 -0.6,-0.4 -0.6,-0.7 0,-0.2 0.2,-0.3 0.5,-0.2 0.3,0.1 0.4,-0.0 0.2,-0.5 -0.1,-0.4 -0.0,-0.8 0.3,-0.8 0.4,0 0.4,-0.2 0.0,-1.1 -0.4,-0.8 -0.4,-1.1 0.2,-1.1 0.7,0 0.7,-0.1 0.1,-0.7 -0.7,-0.7 -2.1,-0.0 -1.9,0.9 0.0,0.2 -0.2,0.5 -0.5,0.7 -0.4,0.1 -0.5,-0.1 -0.3,-0.9 0.1,-0.6 0.0,-1.0 -0.1,-0.9 -0.2,0.1 -0.9,0.1 -1.6,-0.1 -0.8,-0.3 -0.6,-0.4 1.2,-0.8 1.4,-0.2 2.3,-0.6 2.3,-1.1 0,-0.4 0.4,-0.7 1.0,-0.7 0.5,0 1.4,-0.4 1.8,-1.0 0.7,-1.0 3.5,-2.5 4.4,-2.3 0.2,0.0 1.8,-0.2 3.5,-0.6 1.7,-0.4 4.6,-0.9 6.5,-1.1 1.8,-0.2 3.5,-0.6 3.7,-0.8 0.1,-0.2 0.8,-0.5 1.5,-0.5 0.6,-0.0 2.7,-0.7 4.5,-1.6 1.8,-0.8 3.7,-1.6 4.2,-1.6 0.5,-0.0 1.0,-0.2 1.2,-0.5 0.1,-0.3 0.0,-0.5 -0.2,-0.5 -0.7,0 -0.4,-2.4 0.2,-2.5 0.3,-0.0 1.6,-0.3 2.9,-0.7 1.3,-0.3 3.0,-0.5 3.7,-0.3 0.7,0.1 2.1,0.0 3.1,-0.2 0.9,-0.2 3.1,-0.8 4.8,-1.1 4.6,-0.9 7.1,-1.6 7.1,-2.1 0,-0.5 -28.3,-0.1 -35.3,0.4 -3.6,0.3 -5.1,0.2 -6.6,-0.4 -1.0,-0.4 -2.0,-0.8 -2.2,-0.9 -0.1,-0.0 -1.0,-0.3 -1.8,-0.7 -0.8,-0.3 -2.0,-0.5 -2.4,-0.3 -0.4,0.1 -7.8,0.4 -16.3,0.5 -8.5,0.1 -16.5,0.4 -17.9,0.7 -1.3,0.3 -5.4,0.8 -9.0,1.1 -3.6,0.3 -7.0,0.8 -7.6,1.2 -0.5,0.3 -2.2,0.4 -3.7,0.3 -1.4,-0.1 -2.8,-0.0 -2.9,0.2 -0.1,0.2 -0.5,0.3 -0.8,0.1 -0.2,-0.1 -0.5,-0.0 -0.5,0.2 0,0.3 -0.1,0.5 -0.4,0.4 -0.9,-0.2 -5.6,0.7 -5.6,1.1 0,0.5 -4.1,1.4 -5.7,1.2 -0.5,-0.0 -1.5,0.3 -2.0,0.9 -0.5,0.6 -1.4,1.1 -1.9,1.1 -0.5,0.0 -2.4,0.1 -4.2,0.1 -1.8,0.0 -4.3,0.4 -5.5,0.7 -1.2,0.3 -3.1,0.7 -4.2,0.9 -1.1,0.1 -1.9,0.5 -1.7,0.7 0.5,0.8 -0.7,1.0 -10.3,1.8 -0.5,0.0 -0.8,0.3 -0.8,0.5 0.0,0.2 -0.3,0.6 -1.0,0.8 -0.6,0.1 -1.7,0.7 -2.4,1.2 -1.0,0.6 -3.0,1.0 -7.4,1.3 -3.3,0.1 -6.6,0.3 -7.3,0.2 -0.7,-0.0 -2.0,0.3 -2.9,0.8 -0.9,0.4 -1.8,0.6 -2.0,0.3 -0.4,-0.7 -2.4,-1.3 -1.9,-0.6 0.4,0.7 -0.0,0.6 -1.5,-0.1 -2.9,-1.6 -17.0,-0.3 -18.4,1.6 -0.4,0.6 -0.5,1.0 -0.1,1.1 0.3,0.1 0.5,0.4 0.5,0.6 0,0.2 -0.3,0.3 -0.7,0.1 -0.4,-0.1 -0.9,-0.0 -1.1,0.2 -0.5,0.8 2.7,0.7 4.5,-0.1 0.8,-0.4 2.6,-0.9 3.9,-1.1 1.3,-0.2 2.9,-0.4 3.4,-0.5 0.5,-0.0 0.9,0.1 0.9,0.5 0,0.5 0.6,0.6 2.3,0.5 1.8,-0.1 2.1,-0.0 1.3,0.3 -0.5,0.3 -0.8,0.7 -0.7,1.0 0.3,0.5 -2.7,1.0 -8.7,1.5 -3.3,0.2 -4.4,0.1 -4.8,-0.4 -0.3,-0.5 -0.4,-0.5 -0.4,-0.0 -0.0,1.0 -3.3,0.8 -4.5,-0.2 -0.5,-0.5 -1.0,-0.6 -1.0,-0.3 0,0.3 -1.7,0.3 -4.5,0.1 -2.5,-0.2 -6.4,-0.5 -8.6,-0.6 -2.2,-0.1 -4.9,-0.5 -5.9,-0.9 -0.9,-0.3 -2.4,-0.5 -3.1,-0.3 -0.7,0.1 -1.5,0.0 -1.7,-0.3 -0.2,-0.3 -0.0,-0.3 0.3,-0.1 0.4,0.2 0.5,0.2 0.3,-0.1 -0.4,-0.6 -3.0,-1.2 -6.1,-1.4 -1.8,-0.0 -2.2,-0.3 -2.2,-1.2 -0.0,-1.0 0.3,-1.2 3.5,-1.6 2.0,-0.2 4.2,-0.3 5.0,-0.3 l 1.3,0.1 -1.4,-0.7 c -2.5,-1.3 -5.0,-1.9 -9.8,-2.3 -2.5,-0.1 -6.3,-0.7 -8.2,-1.2 -4.5,-1.1 -20.2,-1.2 -20.9,-0.1 -0.2,0.3 -0.7,0.5 -1.0,0.2 -0.9,-0.5 -11.0,-0.7 -10.7,-0.2 0.3,0.5 0.2,0.5 -6.9,0.7 -5.0,0.1 -7.2,0.3 -14.8,1.3 -3.4,0.4 -5.5,0.1 -7.5,-0.9 -0.8,-0.4 -0.6,-0.7 1.3,-1.9 1.6,-1.0 3.5,-1.6 6.5,-1.9 5.0,-0.6 9.9,-1.4 13.4,-2.2 2.0,-0.4 2.5,-0.7 2.2,-1.6 -0.1,-0.6 -0.5,-0.9 -1.0,-0.7 -0.4,0.1 -0.7,0.0 -0.7,-0.3 0,-0.3 0.4,-0.6 0.9,-0.6 0.8,-0.0 0.8,-0.0 0.1,-0.5 -0.5,-0.3 -0.5,-0.5 -0.1,-0.5 0.3,-0.0 0.5,-0.3 0.3,-0.8 -0.2,-0.5 0.3,-1.1 1.8,-1.7 l 2.1,-0.9 -5.3,-0.3 c -2.9,-0.1 -6.8,-0.3 -8.6,-0.2 -1.8,0.0 -3.3,0.0 -3.3,-0.0 0,-0.0 0.4,-0.6 1.1,-1.3 0.6,-0.7 1.1,-1.1 1.1,-0.8 0,0.2 0.5,0.0 1.2,-0.4 0.6,-0.4 3.0,-1.1 5.3,-1.4 2.2,-0.3 5.0,-0.9 6.2,-1.4 1.2,-0.4 3.0,-0.7 4.1,-0.7 3.0,-0.0 10.8,-2.0 8.5,-2.2 -0.2,-0.0 -1.0,-0.1 -1.6,-0.2 -0.6,-0.1 -1.4,-0.3 -1.7,-0.4 -1.2,-0.2 -1.3,-0.8 -0.1,-1.1 0.6,-0.2 1.8,-0.9 2.6,-1.7 0.7,-0.7 1.9,-1.3 2.6,-1.3 0.6,0 1.5,-0.3 1.8,-0.7 0.5,-0.6 0.0,-0.8 -2.5,-1.1 -1.7,-0.1 -3.9,-0.4 -4.8,-0.6 -2.1,-0.3 -10.7,-0.2 -11.3,0.0 -0.7,0.4 -7.1,0.7 -7.1,0.2 0,-0.2 0.3,-0.7 0.8,-1.1 0.4,-0.3 0.8,-0.9 0.8,-1.2 0,-0.3 -0.1,-0.4 -0.3,-0.2 -0.1,0.1 -0.6,0.0 -1.1,-0.2 -0.4,-0.3 -0.7,-0.3 -0.7,-0.0 0,0.2 -0.3,0.5 -0.8,0.5 -1.3,0 -0.9,-0.5 0.8,-1.3 2.0,-0.9 1.7,-1.2 -1.5,-2.0 -3.0,-0.6 -3.5,-1.6 -1.4,-2.5 2.2,-0.9 12.7,-2.0 18.7,-2.0 2.8,-0.0 5.7,-0.1 6.5,-0.3 l 1.4,-0.3 -1.5,-1.2 c -0.8,-0.7 -1.9,-1.2 -2.5,-1.3 -1.3,-0.0 -1.7,-0.9 -1.0,-2.2 0.7,-1.3 5.5,-3.8 7.4,-3.8 0.8,0 1.2,-0.2 1.0,-0.5 -0.1,-0.3 -0.7,-0.5 -1.3,-0.5 -0.9,0 -1.9,-1.3 -1.7,-2.3 0.2,-0.9 -8.5,0.1 -9.2,1.1 -0.5,0.8 -14.6,2.8 -16.0,2.3 l -1.3,-0.4 1.2,-0.6 c 0.7,-0.3 5.2,-1.3 10.1,-2.1 8.9,-1.4 11.1,-2.5 5.2,-2.5 -1.8,0 -3.4,-0.3 -4.0,-0.7 -0.7,-0.6 -1.8,-0.6 -6.3,-0.1 -8.2,1.0 -13.0,1.6 -14.1,2.0 -0.7,0.2 -0.9,0.0 -0.8,-0.6 0.2,-0.9 1.9,-2.1 4.5,-3.0 2.3,-0.8 0.8,-1.5 -2.0,-1.0 -1.2,0.2 -3.4,0.5 -4.8,0.7 l -2.4,0.3 2.0,-1.9 c 1.1,-1.0 2.0,-2.0 2.0,-2.1 0,-0.1 -1.5,-0.3 -3.4,-0.5 -4.4,-0.5 -6.8,-1.7 -6.8,-3.5 0.0,-0.9 3.5,-2.2 6.9,-2.4 1.3,-0.1 4.4,-0.5 6.9,-1.0 2.4,-0.4 6.1,-0.9 8.2,-1.1 2.1,-0.1 5.3,-0.5 7.1,-0.8 11.3,-1.9 13.8,-2.4 14.3,-2.7 0.2,-0.1 -0.5,-0.5 -1.9,-0.9 -1.3,-0.3 -2.4,-0.9 -2.4,-1.3 0,-0.9 5.5,-2.9 10.6,-3.8 2.4,-0.4 4.2,-1.0 4.8,-1.7 0.5,-0.5 2.3,-1.3 4.2,-1.6 4.1,-0.8 4.0,-1.5 -0.4,-3.2 -0.9,-0.3 -1.6,-0.9 -1.5,-1.2 0.3,-0.7 2.8,-2.0 4.2,-2.0 0.5,0 0.8,-0.2 0.6,-0.5 -0.1,-0.3 -2.1,-0.5 -4.4,-0.5 -3.7,0 -5.2,-0.5 -3.4,-1.2 1.6,-0.6 -6.4,-0.2 -10.4,0.4 -4.9,0.9 -7.6,0.5 -7.6,-1.1 0,-0.7 1.4,-1.7 5.4,-3.7 3.7,-1.8 5.1,-2.8 4.6,-3.1 -0.9,-0.6 -0.0,-1.2 3.6,-2.4 5.2,-1.7 9.3,-4.6 8.8,-6.1 -0.3,-1.0 1.6,-1.6 10.0,-2.8 4.1,-0.6 8.3,-1.4 9.3,-1.9 0.9,-0.4 2.9,-0.9 4.4,-1.1 4.1,-0.4 11.9,-2.4 13.1,-3.3 0.5,-0.4 1.8,-0.7 2.7,-0.7 0.9,-0.0 2.1,-0.2 2.7,-0.5 0.8,-0.3 0.6,-0.4 -1.1,-0.5 -4.7,-0.1 -7.2,-0.6 -7.8,-1.4 -0.4,-0.5 -1.0,-0.7 -1.9,-0.4 -1.1,0.3 -1.1,0.2 -0.3,-0.2 0.5,-0.3 1.4,-0.5 1.9,-0.4 0.5,0.0 1.2,-0.0 1.6,-0.3 0.4,-0.2 1.2,-0.1 2.1,0.2 1.0,0.5 1.5,0.5 2.4,0.0 0.6,-0.4 1.1,-0.4 1.3,-0.1 0.1,0.2 1.7,0.5 3.4,0.5 1.7,0.0 3.7,0.3 4.5,0.8 1.6,0.9 2.2,1.0 2.2,0.2 0,-0.3 -0.3,-0.5 -0.8,-0.5 -0.4,0 -0.7,-0.2 -0.5,-0.4 0.1,-0.2 -0.2,-0.6 -0.8,-0.7 -0.6,-0.1 -1.0,-0.6 -0.9,-1.0 0.2,-0.7 2.7,-1.1 10.3,-1.8 6.9,-0.5 8.8,-0.8 8.8,-1.4 0,-0.2 -0.3,-0.5 -0.8,-0.5 -0.4,0 -0.8,-0.4 -0.8,-1.1 0,-0.8 0.3,-1.1 1.3,-1.1 1.5,0 1.8,-0.8 0.3,-1.2 -0.5,-0.1 -3.3,-0.1 -6.2,0.0 -8.3,0.4 -11.7,0.3 -13.4,-0.6 -0.8,-0.4 -1.7,-0.7 -1.9,-0.6 -0.1,0.1 -0.2,-0.4 -0.1,-1.3 0.2,-1.8 -0.5,-2.1 -6.1,-2.3 -3.3,-0.0 -3.6,-0.1 -2.4,-0.7 1.9,-1.0 9.0,-2.4 13.2,-2.6 2.1,-0.1 4.2,-0.5 4.9,-1.0 1.5,-1.0 2.5,-1.1 3.5,-0.0 0.4,0.4 1.8,0.8 3.1,0.8 4.0,-0.0 19.3,-1.5 21.4,-2.1 1.9,-0.5 1.9,-0.6 1.5,-2.4 -0.2,-1.1 -0.1,-2.1 0.1,-2.4 0.3,-0.3 0.3,-0.8 -0.0,-1.3 -1.3,-1.5 0.3,-1.9 8.4,-1.6 6.2,0.2 8.2,0.0 9.4,-0.5 1.3,-0.6 7.4,-1.6 11.5,-1.7 0.6,-0.0 2.3,-0.2 3.8,-0.5 l 2.7,-0.4 -2.4,-0.4 c -1.3,-0.2 -5.4,-0.2 -9.1,-0.1 -3.6,0.1 -8.8,0.2 -11.5,0.2 -2.7,-0.0 -8.0,0.3 -11.8,0.8 -7.5,0.9 -15.2,1.6 -18.5,1.6 -1.1,-0.0 -2.2,0.2 -2.4,0.4 -0.1,0.2 -1.1,0.5 -2.0,0.5 -0.9,0.0 -1.7,0.2 -1.7,0.5 0,0.2 -0.5,0.2 -1.2,0.1 -0.9,-0.2 -1.0,-0.2 -0.4,0.2 0.7,0.4 0.6,0.5 -0.1,0.5 -0.5,0.0 -0.9,0.2 -0.9,0.6 0,0.3 -0.5,0.2 -1.3,-0.2 -1.5,-0.9 -2.1,-1.1 -1.7,-0.4 0.1,0.2 -0.1,0.6 -0.7,0.7 -0.6,0.1 -1.0,0.0 -1.0,-0.3 -10e-5,-0.3 -0.8,-0.6 -2.0,-0.6 -1.3,0 -2.0,0.2 -1.9,0.6 0.0,0.4 -0.5,0.5 -1.9,0.4 -2.2,-0.2 -4.5,-1.5 -4.5,-2.5 -0.0,-0.4 -0.2,-0.3 -0.5,0.1 -0.4,0.6 -0.5,0.4 -0.5,-0.7 -0.0,-1.9 0.8,-3.6 1.9,-3.6 0.4,0 0.6,-0.2 0.5,-0.5 -0.1,-0.3 0.1,-0.5 0.6,-0.5 1.8,-0.0 2.9,-0.4 4.2,-1.2 1.1,-0.7 3.6,-0.4 3.6,0.3 0,0.1 -0.3,0.1 -0.7,-0.0 -0.4,-0.1 -1.0,0.1 -1.5,0.6 -0.6,0.8 -0.6,0.8 0.0,0.4 0.6,-0.3 0.6,-0.2 0.3,0.5 -0.2,0.6 -0.1,1.1 0.3,1.4 1.0,0.6 1.9,0.5 0.9,-0.1 -0.6,-0.4 -0.3,-0.5 1.2,-0.2 1.1,0.1 2.5,0.0 3.1,-0.3 0.7,-0.4 1.2,-0.4 1.8,0.0 0.6,0.5 0.8,0.4 1.2,-0.3 0.2,-0.5 0.3,-1.1 0.3,-1.3 -0.0,-0.2 0.2,-0.4 0.6,-0.4 0.4,0 0.8,-0.2 0.9,-0.6 0.1,-0.3 0.9,-0.7 1.8,-0.8 0.8,-0.0 1.8,-0.5 2.2,-1.0 0.3,-0.4 0.8,-0.6 1.0,-0.4 0.2,0.2 0.2,-0.0 0.1,-0.5 -0.4,-1.1 0.6,-1.3 1.0,-0.1 0.2,0.7 0.4,0.7 1.3,-0.0 0.9,-0.8 1.0,-0.8 1.0,0.1 0.0,0.8 0.0,0.9 0.5,0.2 0.7,-1.2 0.6,-1.5 -0.7,-1.8 -0.9,-0.2 -1.3,-0.6 -1.2,-1.5 0.0,-1.2 2.0,-2.2 4.2,-2.1 2.0,0.1 3.8,-0.5 3.8,-1.5 0,-0.5 0.5,-0.7 2.0,-0.6 2.2,0.1 5.9,-0.4 7.3,-1.2 0.6,-0.3 0.6,-0.4 -0.2,-0.5 -0.6,-0.0 -2.3,-0.1 -3.8,-0.3 -4.6,-0.4 -10.9,-0.4 -13.1,0.0 -1.5,0.3 -2.0,0.2 -1.7,-0.1 0.2,-0.3 0.0,-0.5 -0.3,-0.3 -0.4,0.1 -1.1,-0.3 -1.7,-1.2 -0.7,-1.0 -0.8,-1.5 -0.3,-1.7 0.4,-0.1 0.3,-0.4 -0.3,-1.0 -0.9,-0.7 -0.8,-0.7 0.6,-0.4 0.9,0.1 1.3,0.1 0.9,-0.0 -1.3,-0.6 -0.6,-1.3 1.5,-1.3 1.3,0 2.2,0.2 2.2,0.6 0.0,0.5 0.1,0.4 0.4,-0.0 0.2,-0.4 0.6,-0.5 0.8,-0.1 0.3,0.5 1.0,0.5 2.7,-0.1 0.5,-0.2 1.8,-0.4 2.8,-0.4 2.2,-0.0 3.0,-1.4 0.7,-1.4 -0.8,0 -1.7,-0.3 -1.8,-0.8 -0.2,-0.5 0.0,-0.8 0.7,-0.8 0.5,0 1.2,-0.3 1.5,-0.6 0.6,-0.9 2.8,-2.1 3.4,-1.8 0.2,0.1 0.6,0.0 0.8,-0.2 0.1,-0.3 1.0,-0.5 1.8,-0.5 0.8,0 2.8,-0.4 4.5,-0.8 2.6,-0.7 2.8,-0.9 1.7,-1.3 -0.6,-0.2 -5.2,-0.4 -10.2,-0.3 -4.9,0.0 -9.3,-0.1 -9.7,-0.3 -0.4,-0.2 -0.8,-0.1 -1.0,0.1 -0.4,0.7 -17.6,1.2 -18.0,0.5 -0.1,-0.2 -0.6,-0.2 -1.1,-0.1 -0.5,0.2 -0.6,0.4 -0.2,0.7 0.3,0.2 -0.1,0.3 -1.0,0.3 -0.9,0 -1.6,-0.2 -1.6,-0.5 0,-0.2 -0.3,-0.2 -0.8,0.1 -0.4,0.3 -1.0,0.5 -1.2,0.3 -0.2,-0.2 0.2,-0.8 0.9,-1.4 l 1.3,-1.0 -1.3,0.2 c -1.2,0.2 -1.2,0.2 -0.2,-0.2 1.5,-0.7 4.2,-0.6 5.7,0.1 1.4,0.8 3.3,0.5 3.3,-0.4 0,-0.4 1.0,-0.6 3.5,-0.7 2.2,-0.0 3.5,0.2 3.5,0.5 0,0.3 0.3,0.1 0.6,-0.2 0.4,-0.6 1.9,-1.0 5.3,-1.2 2.5,-0.1 6.2,-0.7 8.1,-1.1 1.9,-0.4 4.2,-0.8 5.2,-0.8 0.9,-0.0 3.0,-0.3 4.5,-0.8 2.5,-0.7 2.2,-0.7 -4.6,-0.4 -4.0,0.1 -7.8,0.3 -8.2,0.3 -0.4,0.0 -6.1,0.5 -12.6,1.3 -6.5,0.7 -13.6,1.3 -15.8,1.4 -2.1,0.0 -3.8,0.3 -3.6,0.5 0.1,0.2 -0.8,0.4 -2.1,0.4 -1.3,0 -4.6,0.3 -7.3,0.8 -4.6,0.7 -15.7,1.5 -14.2,1.0 0.3,-0.1 0.5,-0.4 0.3,-0.7 -0.1,-0.2 0.3,-0.5 1.2,-0.5 0.8,-0.0 2.4,-0.4 3.4,-1.0 1.0,-0.5 2.4,-1.2 3.0,-1.5 1.9,-0.9 34.5,-6.3 42.2,-6.9 2.2,-0.1 8.8,-0.8 14.6,-1.4 5.7,-0.6 13.3,-1.3 16.9,-1.6 3.5,-0.2 7.6,-0.8 9.0,-1.3 1.9,-0.5 2.7,-0.6 3.0,-0.1 0.3,0.5 6.1,0.4 13.1,-0.3 1.0,-0.1 4.4,-0.3 7.4,-0.5 5.4,-0.3 13.7,-1.4 18.3,-2.5 1.3,-0.2 2.6,-0.3 2.9,-0.2 0.2,0.1 4.1,-0.2 8.5,-0.8 6.5,-0.9 8.2,-1.0 9.2,-0.5 1.0,0.5 2.3,0.4 7.2,-0.5 8.2,-1.6 18.9,-3.7 24.2,-4.7 2.4,-0.4 5.9,-1.2 7.8,-1.6 1.8,-0.4 4.2,-0.7 5.2,-0.7 1.0,0 2.9,-0.3 4.3,-0.7 2.3,-0.7 7.0,-1.5 19.5,-3.4 6.4,-0.9 7.7,-1.1 14.3,-2.4 3.0,-0.5 8.0,-1.4 11.0,-1.9 3.0,-0.5 6.2,-1.0 7.1,-1.1 6.4,-1.0 7.6,-1.0 8.9,0.1 0.6,0.6 1.2,1.4 1.2,1.7 0,0.3 0.1,0.5 0.4,0.5 0.2,-0.0 0.9,-0.0 1.6,0 1.0,0.0 1.1,0.2 0.7,1.0 -0.6,1.2 -0.1,1.9 0.8,1.1 1.1,-0.9 0.8,-0.0 -0.4,1.4 -0.6,0.7 -2.0,1.4 -3.3,1.7 -1.8,0.3 -2.0,0.4 -1.4,1.2 0.8,1.0 0.1,1.1 35.5,-3.1 2.4,-0.2 6.7,-0.6 9.6,-0.7 2.8,-0.1 8.1,-0.5 11.5,-0.8 3.4,-0.3 8.0,-0.6 10.2,-0.7 2.1,-0.1 4.8,-0.4 6.0,-0.7 1.2,-0.3 5.9,-0.5 10.5,-0.6 4.6,-0.0 8.7,-0.1 9.1,-0.2 0.9,-0.3 13.9,-1.0 17.0,-0.8 1.3,0.0 2.8,0.4 3.3,0.8 1.0,0.9 3.6,1.0 16.0,0.5 5.6,-0.2 10.8,-0.7 12.5,-1.1 2.2,-0.6 5.9,-0.7 15.7,-0.7 7.0,0.0 18.7,-0.0 26.0,-0.3 14.7,-0.4 13.9,-0.4 29.2,0.1 9.8,0.4 15.6,0.4 24.2,0.0 1.5,-0.0 2.3,-0.2 1.7,-0.3 -0.5,-0.1 -0.9,-0.5 -0.9,-0.8 0,-0.3 1.5,-0.4 4.5,-0.2 2.5,0.1 10.0,0.5 16.7,0.8 6.6,0.3 15.2,0.8 19.0,1.1 15.2,1.2 21.0,1.6 28.9,2.1 19.8,1.2 30.2,1.7 41.1,1.9 5.0,0.0 11.2,0.3 13.8,0.5 2.5,0.2 6.4,0.3 8.5,0.3 2.1,-0.0 6.3,0.1 9.3,0.4 3.0,0.2 12.8,0.6 21.8,0.7 8.9,0.1 17.4,0.4 18.7,0.7 1.3,0.2 4.3,0.6 6.7,0.8 2.3,0.1 5.1,0.4 6.0,0.5 3.2,0.5 8.3,0.8 15.8,1.1 6.5,0.2 12.9,0.6 22.3,1.7 1.5,0.1 3.6,0.3 4.6,0.4 1.0,0.0 3.7,0.3 6.0,0.5 2.2,0.1 6.1,0.5 8.5,0.6 2.4,0.1 4.5,0.4 4.6,0.5 0.1,0.0 1.6,0.3 3.4,0.5 1.7,0.1 3.5,0.4 3.9,0.6 0.4,0.1 3.0,0.3 5.6,0.4 7.3,0.2 7.3,0.2 7.3,1.1 0,0.4 0.2,0.8 0.5,0.8 0.3,0 0.4,-0.2 0.1,-0.6 -0.2,-0.4 -0.0,-0.5 0.5,-0.2 0.5,0.2 1.5,0.3 2.1,0.3 0.8,0 1.2,0.3 1.3,1.1 0.0,1.3 -0.2,1.3 -1.3,0.2 -1.1,-1.1 -2.4,-1.0 -2.0,0.1 0.1,0.5 0.1,0.7 -0.1,0.3 -0.3,-0.4 -1.8,-0.4 -4.8,-0.2 -5.1,0.4 -9.0,0.3 -16.2,-0.4 -2.8,-0.3 -6.6,-0.7 -8.2,-0.8 -1.6,-0.1 -3.3,-0.3 -3.6,-0.5 -0.3,-0.1 -0.7,0.1 -0.9,0.6 -0.2,0.6 -0.7,0.7 -2.0,0.4 -1.9,-0.4 -3.2,-0.5 -8.5,-1.1 -2.1,-0.2 -4.0,-0.4 -4.1,-0.5 -0.3,-0.2 -7.7,-0.2 -17.8,-0.0 -6.4,0.1 -10.9,-0.2 -14.3,-1 -1.9,-0.4 -15.2,-0.6 -15.2,-0.2 0,0.2 1.6,0.5 3.7,0.7 2.0,0.2 4.2,0.4 4.8,0.6 4.2,0.8 15.6,1.7 24.8,2.0 2.1,0.0 4.1,0.2 4.4,0.4 0.5,0.3 17.4,1.6 18.3,1.4 0.2,-0.0 2.2,0.0 4.5,0.2 3.5,0.3 12.5,0.9 14.7,1.0 0.8,0.0 0.9,0.7 0.1,1.2 -0.5,0.3 -4.6,0.4 -8.4,0.1 -1.1,-0.0 -2.2,-0.4 -2.5,-0.8 -0.3,-0.5 -1.2,-0.6 -3.7,-0.3 -1.7,0.2 -3.4,0.4 -3.6,0.5 -0.2,0.1 -0.7,-0.1 -1.2,-0.6 -0.4,-0.4 -0.9,-0.6 -1.1,-0.3 -0.3,0.5 -11.4,0.2 -14.6,-0.2 -1.0,-0.1 -2.9,-0.3 -4.1,-0.4 -1.2,-0.0 -2.7,-0.4 -3.4,-0.7 -0.9,-0.5 -1.2,-0.5 -1.2,0.0 0,0.4 -0.7,0.7 -1.7,0.8 -4.3,0.3 -10.4,0.3 -15.3,-0.0 -3.4,-0.2 -4.9,-0.2 -4.4,0.1 2.1,1.4 -1.9,2.1 -8.2,1.4 -5.6,-0.6 -6.6,-0.6 -9.0,-0.3 -1.2,0.1 -3.0,0.1 -3.9,-0.0 -2.3,-0.6 -14.6,-1.7 -20.1,-1.8 -2.5,-0.0 -6.3,-0.2 -8.2,-0.4 -1.9,-0.2 -5.9,-0.5 -8.8,-0.6 -2.8,-0.1 -9.7,-0.6 -15.1,-1.0 -5.4,-0.4 -13.5,-0.9 -18.0,-1.1 -7.2,-0.3 -8.1,-0.2 -8.4,0.5 -0.3,0.7 -1.2,0.9 -6.5,0.8 -3.3,-0.0 -7.2,0.1 -8.6,0.4 l -2.4,0.4 4.1,0.6 c 2.2,0.3 5.0,0.6 6.0,0.6 1.0,-0.0 5.4,0.3 9.6,0.8 4.2,0.4 12.3,1.1 17.9,1.4 5.6,0.3 10.7,0.7 11.4,0.8 0.6,0.1 6.2,0.5 12.4,0.8 11.0,0.5 18.8,0.9 24.7,1.3 1.6,0.1 7.3,0.4 12.7,0.7 5.3,0.3 10.0,0.6 10.4,0.8 0.4,0.1 1.2,0.4 1.8,0.6 0.6,0.2 2.0,0.4 3.2,0.5 1.1,0.0 2.4,0.5 2.7,1.0 0.5,0.6 1.9,0.9 6.9,1.0 3.4,0.0 6.5,0.2 6.8,0.4 0.3,0.1 2.4,0.4 4.6,0.6 10.8,0.8 21.7,1.5 26.7,1.7 3.0,0.0 9.4,0.6 14.3,1.1 4.8,0.5 11.0,1.0 13.8,1.1 18.9,0.6 34.0,1.5 41.9,2.4 2.7,0.2 7.5,0.7 10.6,0.8 3.1,0.1 5.8,0.5 5.9,0.8 0.1,0.2 -0.5,0.4 -1.5,0.5 -1.0,0.0 -2.5,0.0 -3.3,0.1 -0.8,0.0 -1.6,-0.0 -1.7,-0.2 -0.1,-0.2 -1.1,-0.1 -2.2,0.1 -1.1,0.3 -3.6,0.4 -5.6,0.1 -1.9,-0.2 -12.5,-0.4 -23.4,-0.5 -10.9,-0.1 -23.9,-0.3 -28.9,-0.5 -8.9,-0.3 -11.4,-0.1 -5.6,0.4 1.6,0.1 3.0,0.4 3.2,0.5 0.3,0.3 -1.6,1.3 -3.2,1.5 -1.9,0.2 -2.5,0.9 -0.8,1.0 0.7,0.0 4.5,0.2 8.5,0.5 3.9,0.2 11.7,0.6 17.2,0.8 9.1,0.2 10.0,0.4 10.0,1.2 0,1.2 2.2,1.5 15.6,2.0 5.4,0.2 9.9,0.5 10.1,0.8 0.1,0.2 1.3,0.4 2.7,0.4 4.5,0 3.2,1.5 -2.3,2.7 -1.5,0.3 -3.6,0.5 -4.6,0.5 -6.7,-0.3 -4.9,0.7 2.5,1.5 3.0,0.3 7.2,0.7 9.3,0.9 2.1,0.1 5.9,0.5 8.5,0.8 2.5,0.3 7.7,0.7 11.5,0.9 4.6,0.2 7.0,0.5 7.4,1.0 0.3,0.4 2.2,0.8 4.4,1.0 2.1,0.1 4.1,0.6 4.4,1.0 0.3,0.3 2.3,0.8 4.5,1.0 2.2,0.2 4.5,0.7 5.2,1.1 0.7,0.5 3.1,0.9 6.4,1.0 7.0,0.3 12.6,0.9 12.9,1.4 0.3,0.5 -4.5,1.2 -5.2,0.8 -0.3,-0.1 -0.5,-0.1 -0.5,0.1 0,0.2 0.8,0.6 1.9,0.8 2.0,0.3 2.4,1.0 0.9,1.6 -1.8,0.6 0.7,1.8 6.3,2.8 4.7,0.8 7.7,1.8 5.5,1.9 -2.0,0.0 1.1,1.0 4.4,1.3 1.9,0.2 3.8,0.6 4.2,0.8 0.3,0.2 2.2,0.7 4.1,1.0 5.3,0.8 5.2,1.5 -0.1,1.9 -2.0,0.1 -3.8,0.6 -4.4,1.1 -0.7,0.7 -1.7,0.7 -5.2,0.4 -7.1,-0.6 -8.5,-0.5 -9.5,0.8 -0.5,0.6 -0.8,1.4 -0.7,1.6 0.1,0.2 1.9,0.5 3.9,0.7 2.0,0.2 3.9,0.5 4.2,0.8 0.3,0.2 1.7,0.6 3.1,0.8 3.9,0.5 3.1,1.3 -1.4,1.3 -2.2,0 -4.2,0.1 -4.4,0.4 -0.2,0.2 -2.5,0.4 -5.1,0.4 -3.2,0 -4.8,0.2 -4.9,0.6 -0.1,0.4 0.4,0.6 1.8,0.6 1.1,9.8e-4 2.9,0.2 4.0,0.5 1.0,0.2 4.0,0.6 6.6,0.8 2.5,0.1 4.9,0.5 5.2,0.8 0.3,0.2 0.7,0.3 0.9,0.1 0.1,-0.1 0.8,-0.1 1.6,0.1 0.9,0.3 0.4,0.5 -2.5,0.8 -3.5,0.3 -7.5,1.1 -9.6,1.9 -1.3,0.5 0.7,1.0 7.0,1.9 3.1,0.4 5.6,0.8 5.6,1.0 0,0.1 1.6,0.2 3.5,0.0 2.8,-0.1 3.5,-0.0 3.5,0.5 0,1.0 -1.7,2.6 -2.8,2.6 -0.6,-0.0 -0.6,-0.1 0.0,-0.5 0.7,-0.4 0.6,-0.5 -0.1,-0.5 -0.5,-0.0 -1.1,0.3 -1.3,0.8 -0.2,0.7 -1.2,0.8 -6.7,0.5 -6.8,-0.3 -8.5,0.0 -7.2,1.5 2.1,2.5 10.7,5.2 16.6,5.2 3.5,0 5.4,0.6 5.4,1.9 0,0.6 -0.8,0.8 -4.2,0.7 -2.3,-0.0 -5.2,-0.2 -6.4,-0.5 -1.2,-0.3 -6.9,-0.6 -12.7,-0.8 -10.2,-0.2 -10.5,-0.2 -10.5,0.8 -0.0,1.0 0.5,1.8 1.7,2.0 0.3,0.0 2.6,0.4 5.2,0.9 8.5,1.6 16.1,2.5 23.8,3.0 7.1,0.4 9.6,1.0 8.8,2.2 -0.1,0.2 -0.5,0.3 -0.8,0.1 -0.2,-0.1 -0.4,0.0 -0.3,0.4 0.0,0.4 -0.2,0.6 -0.8,0.6 -0.5,-0.0 -0.8,0.1 -0.6,0.3 0.1,0.2 -0.5,0.5 -1.6,0.7 -2.2,0.4 -2.7,1.4 -1.6,3.0 0.6,0.8 0.6,1.3 0.2,1.9 -0.7,0.8 -0.2,1.4 1.1,1.4 0.5,0 1.0,0.1 1.0,0.2 0,0.1 0.1,0.6 0.3,1.1 0.3,0.8 -0.0,0.9 -4.5,0.5 -2.7,-0.2 -5.8,-0.5 -6.9,-0.6 -1.6,-0.2 -2.0,-0.1 -2.0,0.5 0,0.4 -0.4,1.0 -0.8,1.3 -1.2,0.7 -0.5,3.8 1.0,4.5 1.1,0.4 1.1,0.4 0.0,0.5 -1.1,0.0 -1.1,0.0 0,0.5 1.0,0.4 -0.4,0.6 -6.0,0.7 -2.3,0.0 -4.1,0.8 -4.1,1.7 0,0.4 -0.5,0.7 -1.5,0.7 -0.8,0.0 -2.0,0.1 -2.7,0.3 -1.1,0.3 -1.1,0.3 -0.2,1.0 0.5,0.4 1.6,0.7 2.4,0.7 0.8,0.0 3.1,0.8 5.1,1.9 2.0,1.0 4.4,1.9 5.4,1.9 3.3,0 8.5,0.7 8.3,1.1 -0.1,0.2 0.1,0.3 0.6,0.3 0.5,-0.0 1.0,0.3 1.1,0.8 0.2,1.2 -3.0,3.3 -4.6,3.0 -0.6,-0.1 -1.3,0.0 -1.4,0.3 -0.2,0.7 -6.7,1.0 -9.2,0.3 -1.0,-0.2 -6.7,-0.5 -12.5,-0.6 -9.8,-0.1 -12.7,0.1 -9.0,0.8 0.8,0.1 2.6,0.5 4.0,0.8 1.3,0.3 3.5,0.5 4.8,0.5 1.2,0.0 2.3,0.2 2.3,0.5 0,0.3 0.3,0.5 0.8,0.5 0.4,0 1.3,0.2 1.9,0.6 1.1,0.5 1.1,0.6 -0.1,1.2 -2.2,1.1 -1.5,2.1 2.2,3.4 1.9,0.6 3.6,1.4 3.8,1.9 0.1,0.4 0.4,0.9 0.7,1.1 0.8,0.5 -0.1,2.2 -1.1,1.8 -0.4,-0.1 -0.7,-0.1 -0.5,0.0 0.1,0.1 -0.2,0.9 -1.0,1.7 -1.0,1.0 -2.0,1.4 -3.7,1.4 -1.2,0.0 -2.2,0.2 -2.1,0.4 0.1,0.1 -2.1,0.2 -5.0,0.0 -4.2,-0.2 -5.4,-0.1 -6.2,0.5 -1.0,0.9 -6.4,1.3 -9.2,0.6 -1.0,-0.2 -1.8,-0.1 -2.1,0.2 -0.2,0.3 -0.9,0.6 -1.6,0.6 -1.6,0 -3.0,0.5 -3.0,1.1 0,0.2 0.3,0.4 0.8,0.4 0.4,0 1.0,0.3 1.2,0.8 0.2,0.5 2.4,1.2 5.6,1.8 6.3,1.2 11.0,3.1 10.6,4.2 -0.1,0.4 -0.6,0.6 -1.0,0.5 -0.4,-0.1 -0.6,-0.0 -0.4,0.1 0.1,0.2 -0.3,1.2 -1.1,2.2 -1.0,1.2 -1.7,1.6 -2.5,1.3 -0.6,-0.1 -0.9,-0.1 -0.7,0.1 0.1,0.2 -0.5,0.5 -1.6,0.5 -1.0,0.0 -3.6,0.4 -5.7,1.0 l -3.8,0.9 1.2,1.3 c 0.6,0.7 1.4,1.3 1.7,1.3 0.2,0 1.3,0.4 2.4,0.8 1.8,0.8 1.8,0.9 1.0,2.1 -0.5,0.8 -0.6,1.4 -0.2,1.6 0.3,0.1 0.3,0.6 0.2,0.9 -0.2,0.3 -0.5,0.3 -0.8,-0.1 -0.3,-0.4 -0.6,-0.5 -0.8,-0.1 -0.2,0.3 -1.1,0.9 -2.0,1.3 l -1.6,0.7 1.7,0.1 c 1.8,0.2 2.9,1.6 1.5,2.1 -0.4,0.1 -0.9,0.1 -1.1,0.0 -0.1,-0.1 -1.1,0.1 -2.1,0.7 -1.0,0.5 -2.7,1.2 -3.9,1.4 -1.1,0.2 -2.4,0.7 -2.8,1.1 -0.9,0.9 -1.3,0.9 -6.4,-0.3 -4.6,-1.1 -5.9,-1.0 -7.7,0.6 -1.0,0.9 -1.4,1.0 -4.3,0.4 -3.7,-0.6 -10.9,-0.7 -10.5,-0.1 0.1,0.2 2.0,0.7 4.3,1.1 5.6,0.9 6.2,1.1 5.3,1.7 -1.6,0.9 5.5,3.3 12.6,4.1 1.8,0.2 3.5,0.5 3.7,0.8 0.1,0.2 -0.2,1.0 -0.8,1.9 -1.0,1.3 -1.0,1.5 -0.2,2.4 0.4,0.5 0.8,1.1 0.8,1.2 0,0.6 -9.3,-0.2 -12.4,-1.3 -4.4,-1.4 -13.3,-2.5 -14.1,-1.6 -0.4,0.4 -0.4,0.8 -0.0,1.3 0.5,0.6 1.4,0.9 8.8,2.9 2.2,0.6 3.4,1.2 3.4,1.7 0,0.6 -0.6,0.7 -4.0,0.4 -2.6,-0.2 -4.2,-0.1 -4.4,0.1 -0.1,0.3 -0.0,0.5 0.3,0.5 0.3,0 0.5,0.1 0.3,0.2 -0.3,0.3 -8.1,-1.2 -8.9,-1.8 -0.6,-0.4 -8.6,-1.7 -10.3,-1.6 -0.5,0.0 -0.9,0.3 -0.9,0.7 0,0.3 -0.1,1.0 -0.2,1.4 -0.2,0.7 6.4,2.1 18.0,3.8 1.7,0.2 4.0,0.8 5.1,1.2 1.1,0.4 2.7,0.8 3.7,0.8 2.5,0.0 6.0,1.0 5.5,1.6 -0.2,0.2 -3.6,0.5 -7.4,0.6 -3.8,0.0 -6.9,0.1 -6.8,0.2 0.0,0.0 1.3,0.5 2.8,1.1 2.6,1.0 2.6,1.0 1.4,1.7 -0.9,0.5 -1.9,0.5 -3.9,0.0 -3.3,-0.7 -3.8,-0.7 -3.8,-0.0 0,0.2 0.7,0.6 1.6,0.8 3.0,0.6 2.3,1.3 -1.2,1.3 -2.1,0 -4.2,0.3 -5.2,0.8 -1.0,0.5 -2.2,0.7 -2.9,0.4 -1.5,-0.4 -27.4,-0.6 -27.1,-0.1 0.6,1.0 -6.6,1.0 -12.7,-0.0 -12.5,-2.1 -23.1,-3.3 -30.0,-3.3 -3.7,-0.0 -9.5,-0.4 -12.6,-0.8 -3.1,-0.4 -8.8,-1.0 -12.6,-1.3 -3.7,-0.3 -6.9,-0.6 -7.1,-0.7 -0.1,-0.1 -2.2,-0.3 -4.4,-0.5 -2.2,-0.1 -5.0,-0.4 -6.0,-0.5 -2.2,-0.2 -12.2,-0.8 -19.5,-1.0 -5.2,-0.1 -13.3,-0.6 -18.7,-1.1 -1.8,-0.1 -8.9,-0.4 -15.7,-0.5 -6.8,-0.1 -14.9,-0.4 -17.9,-0.6 -3.0,-0.2 -11.4,-0.4 -18.6,-0.3 -10.9,0.0 -13.2,0.1 -13.6,0.8 -0.4,0.6 -0.5,0.6 -1.0,0.0 -0.3,-0.5 -1.0,-0.6 -2.1,-0.4 -0.8,0.1 -1.9,0.0 -2.2,-0.2 -0.3,-0.3 -1.4,-0.6 -2.4,-0.7 -1.0,-0.0 -2.3,-0.2 -2.9,-0.4 -3.3,-0.9 -6.7,-1.2 -8.1,-0.6 -1.1,0.4 -3.8,-0.0 -3.5,-0.7 0.1,-0.2 -2.5,-0.4 -5.9,-0.5 -9.1,-0.2 -10.0,-0.3 -11.1,-1.1 -0.8,-0.6 -0.9,-0.6 -0.7,0.2 0.1,0.7 -0.0,1.0 -0.6,0.8 -0.4,-0.1 -1.3,-0.2 -2.0,-0.2 -0.6,-0.0 -1.2,-0.2 -1.2,-0.4 0,-0.2 -0.4,-0.5 -0.8,-0.7 -0.6,-0.2 -0.7,-0.1 -0.5,0.5 0.2,0.5 0.1,0.7 -0.3,0.4 -0.3,-0.2 -3.0,-0.5 -5.9,-0.6 -6.0,-0.2 -5.1,-0.1 -33.6,-0.0 -11.9,0.0 -23.3,-0.1 -25.2,-0.3 -1.8,-0.2 -3.8,-0.2 -4.3,-0.0 -0.9,0.3 -18.9,1.0 -24.5,0.9 -4.3,-0.0 -9.2,2.4 -6.5,3.3 0.4,0.1 0.1,0.5 -0.6,0.9 -0.7,0.3 -1.5,0.9 -1.6,1.1 -0.6,0.9 -5.2,1.4 -6.6,0.7 -0.8,-0.4 -3.0,-0.6 -6.5,-0.4 -2.9,0.1 -12.4,0.3 -21.2,0.4 -8.7,0.1 -16.5,0.4 -17.2,0.6 -0.7,0.1 -3.8,0.3 -6.9,0.4 -3.0,0.0 -6.1,0.3 -6.7,0.7 -1.0,0.6 -6.2,1.6 -7.0,1.3 -1.0,-0.2 -3.0,-0.2 -4.8,0.1 -1.0,0.2 -2.4,0.3 -3.0,0.3 -0.6,-0.0 -1.6,-0.1 -2.2,-0.1 -0.6,-0.0 -3.4,0.1 -6.3,0.5 -2.8,0.3 -6.3,0.6 -7.6,0.6 -1.3,-0.0 -2.6,0.2 -3.0,0.5 -0.3,0.2 -1.4,0.6 -2.4,0.9 -1.4,0.3 -1.7,0.2 -1.7,-0.5 0,-0.8 -0.4,-0.8 -4.0,-0.5 -2.2,0.2 -7.9,0.4 -12.8,0.5 -4.8,0.0 -10.1,0.4 -11.8,0.7 -1.6,0.3 -3.0,0.6 -3.2,0.6 -0.1,0 0.0,0.3 0.4,0.8 0.3,0.4 1.5,0.8 2.5,0.8 1.0,0 1.8,0.1 1.8,0.2 0,0.1 0.1,0.6 0.3,1.1 0.4,1.1 -1.0,1.1 -2.3,-0.0 -0.6,-0.6 -1.0,-0.7 -1.1,-0.2 -0.1,0.3 -0.4,0.5 -0.7,0.3 -0.2,-0.1 -0.5,-0.1 -0.5,0.1 0,0.2 -0.5,0.4 -1.2,0.5 -0.6,0.0 -4.4,0.3 -8.4,0.6 -3.9,0.3 -11.8,0.7 -17.6,0.8 -5.7,0.1 -11.1,0.3 -11.8,0.5 -2.5,0.5 -16.7,1.8 -24.2,2.2 -14.0,0.6 -24.6,2.7 -26.8,5.0 -0.6,0.7 -1.8,1.3 -2.7,1.3 -7.1,0.2 -17.0,0.9 -21.4,1.6 -1.8,0.2 -5.0,0.6 -7.1,0.8 -2.0,0.1 -5.0,0.5 -6.5,0.8 -1.5,0.2 -2.8,0.5 -2.9,0.5 -0.1,0 -0.2,-0.6 -0.2,-1.4 z m 0,-5.0 c 0,-0.6 -0.2,-0.6 -1.0,-0.2 -0.6,0.3 -0.9,0.9 -0.7,1.4 0.2,0.6 0.4,0.6 1.0,0.2 0.4,-0.3 0.7,-0.9 0.7,-1.4 z m 93.0,-8.2 c 2.1,-0.7 2.1,-0.7 -2.4,-0.5 -10.5,0.6 -13.8,0.9 -13.8,1.3 0,0.7 13.9,0.0 16.2,-0.7 z m -256.4,-6.6 c 0,-0.1 -0.3,-0.2 -0.8,-0.2 -0.4,0 -0.8,0.2 -0.8,0.5 0,0.2 0.3,0.3 0.8,0.2 0.4,-0.1 0.8,-0.4 0.8,-0.5 z m 40.0,-1.8 c 0.1,-0.3 -0.2,-0.5 -1.0,-0.5 -0.7,0 -1.5,0.2 -1.7,0.5 -0.1,0.3 0.2,0.5 1.0,0.5 0.7,0 1.5,-0.2 1.7,-0.5 z m -26.2,-2.8 c 0,-0.5 -0.6,-0.6 -1.8,-0.1 -1.3,0.5 -1.0,1.1 0.5,0.9 0.7,-0.1 1.3,-0.4 1.3,-0.7 z m 312.3,-0.0 c 1.8,-0.5 2.1,-0.7 1.2,-0.9 -1.4,-0.3 -19.0,0.3 -28.4,1.1 -2.5,0.2 17.1,0.7 21.2,0.5 1.9,-0.0 4.6,-0.4 5.9,-0.8 z m 19.1,-1.6 c 0.6,-0.1 -0.5,-0.2 -2.4,-0.2 -4.7,0.0 -6.5,0.5 -3.5,0.9 1.2,0.1 2.8,0.1 3.5,-0.0 0.7,-0.2 1.8,-0.5 2.4,-0.6 z m -352.3,0.1 c 1.1,-0.0 1.1,-0.0 -0.1,-0.5 -1.5,-0.6 -2.7,-0.3 -2.7,0.6 0,0.3 0.3,0.4 0.8,0.2 0.4,-0.1 1.4,-0.3 2.0,-0.3 z m 360.6,-0.6 c 0.1,-0.1 -0.8,-0.3 -2.1,-0.3 -1.3,-0.0 -2.6,0.1 -2.8,0.5 -0.2,0.4 0.3,0.5 2.1,0.3 1.4,-0.1 2.6,-0.3 2.8,-0.5 z m 431.7,-6.5 c 0.2,-0.3 -0.6,-0.5 -2.3,-0.4 -2.3,0.0 -2.4,0.1 -0.9,0.4 2.4,0.6 2.9,0.6 3.3,0 z M 81.8,474.5 c -0.3,-0.1 -0.8,-0.1 -1.0,0.0 -0.1,0.1 0.1,0.3 0.7,0.2 0.6,-0.0 0.7,-0.1 0.3,-0.3 z m 6.5,-0.7 c 1.1,-0.3 1.1,-0.4 0.2,-0.4 -0.6,-0.0 -1.6,0.1 -2.2,0.4 -1.4,0.6 0.0,0.6 1.9,0 z m 7.4,0.2 c 0.4,-0.1 0.8,-0.7 0.8,-1.3 0,-0.8 -0.3,-0.9 -2.3,-0.6 -2.5,0.3 -4.1,1.2 -2.2,1.2 0.6,0 1.3,0.2 1.5,0.5 0.3,0.6 0.9,0.6 2.1,0.2 z m 896.9,-9.6 c 0,-0.3 -0.4,-0.5 -0.9,-0.5 -0.8,0.0 -0.8,0.0 -0.1,0.5 1.0,0.6 1.1,0.6 1.1,0 z M 109.4,442.0 c -0.3,-0.1 -0.8,-0.1 -1.0,0.0 -0.1,0.1 0.1,0.3 0.7,0.2 0.6,-0.0 0.7,-0.1 0.3,-0.3 z m -4.5,-1.6 c 0,-0.8 -1.5,-1.0 -3.5,-0.2 -2.1,0.8 -1.6,1.4 1.0,1.2 1.6,-0.1 2.4,-0.4 2.4,-0.9 z m 10.2,0.3 c -0.5,-0.8 -2.5,-1.1 -2.5,-0.2 0,0.4 0.5,0.7 1.4,0.7 0.7,0 1.2,-0.2 1.1,-0.4 z m -4.1,-0.6 c 0.6,-0.3 0.2,-0.5 -1.2,-0.5 -1.1,-0.0 -2.0,0.2 -2.0,0.5 0,0.7 2.2,0.7 3.3,0 z M 1031.3,375.5 c 0,-0.3 -0.2,-0.5 -0.5,-0.5 -0.3,0 -0.5,0.2 -0.5,0.5 0,0.3 0.2,0.5 0.5,0.5 0.3,0 0.5,-0.2 0.5,-0.5 z m 4.0,-10.3 c -0.3,-0.1 -1.0,-0.1 -1.3,0 -0.3,0.1 -0.0,0.2 0.6,0.2 0.7,0 1.0,-0.1 0.6,-0.2 z m -8.2,-6.6 c -0.6,-0.1 -1.8,-0.1 -2.4,0 -0.6,0.1 -0.1,0.2 1.2,0.2 1.3,0 1.9,-0.1 1.2,-0.2 z m -25.5,-4.4 c 0,-0.2 -2.0,-0.7 -4.5,-1.0 -2.5,-0.3 -5.1,-0.8 -5.8,-1.0 -0.8,-0.2 -1.2,-0.1 -0.9,0.1 0.1,0.3 2.5,0.8 5.1,1.2 2.6,0.3 5.1,0.7 5.4,0.8 0.3,0.0 0.6,0.1 0.6,0.2 0.0,0.0 0.1,-0.1 0.1,-0.3 z m -805.2,-5.0 c 0.9,-0.4 0.9,-0.4 -0.3,-0.5 -0.8,-0.0 -1.6,0.2 -1.8,0.5 -0.4,0.6 0.6,0.6 2.2,0 z m 801.3,-3.2 c 0,-0.2 -2.4,-0.7 -5.5,-1.1 -6.8,-0.7 -8.0,-0.7 -7.3,-0.0 0.2,0.2 3.2,0.7 6.5,1.0 3.3,0.2 6.1,0.5 6.1,0.5 0.0,0.0 0.1,-0.1 0.1,-0.3 z m -832.3,-6.6 c 0.1,-0.2 -0.0,-0.4 -0.5,-0.4 -0.4,0 -0.8,0.2 -0.8,0.4 0,0.2 0.2,0.4 0.5,0.4 0.2,0 0.6,-0.2 0.8,-0.4 z m 73.8,-1.0 c -0.3,-0.1 -0.8,-0.1 -1.0,0.0 -0.1,0.1 0.1,0.3 0.7,0.2 0.6,-0.0 0.7,-0.1 0.3,-0.3 z m -85.6,-0.7 c 0,-0.3 -0.4,-0.5 -0.9,-0.5 -0.8,0.0 -0.8,0.0 -0.1,0.5 1.0,0.6 1.1,0.6 1.1,0 z m 2.2,-0.8 c 0,-0.1 -0.2,-0.2 -0.5,-0.2 -0.3,0 -0.5,0.2 -0.5,0.5 0,0.3 0.2,0.4 0.5,0.2 0.3,-0.1 0.5,-0.4 0.5,-0.5 z m 31.4,-3.8 c 0.7,-0.2 3.1,-0.5 5.2,-0.8 2.1,-0.2 4.7,-0.7 5.7,-1.0 1.0,-0.3 1.9,-0.5 1.9,-0.5 0,0.2 3.7,-0.9 5.6,-1.7 2.8,-1.2 3.0,-2.1 0.4,-2.1 -1.3,0 -1.9,-0.2 -1.9,-0.8 0,-0.8 2.4,-1.1 6.5,-0.8 1.7,0.1 6.8,-0.8 8.0,-1.5 0.8,-0.5 -1.9,-1.0 -5.5,-1.1 -2.3,-0.0 -4.3,0.3 -6.8,1.3 -1.9,0.7 -4.0,1.3 -4.6,1.3 -0.9,0.0 -0.9,0.1 -0.3,0.5 0.4,0.2 0.9,0.3 1.2,0.2 0.2,-0.1 0.4,-0.0 0.4,0.2 0,0.4 -1.2,0.8 -5.4,1.5 -1.0,0.1 -1.9,0.6 -2.1,1.0 -0.2,0.6 -0.4,0.6 -1.1,0.0 -0.7,-0.5 -0.8,-0.5 -0.5,0.1 0.2,0.6 0.0,0.8 -0.8,0.7 -0.6,-0.0 -2.0,0.1 -3.0,0.4 -1.2,0.3 -2.0,0.2 -2.6,-0.1 -0.4,-0.3 -0.7,-0.4 -0.7,-0.1 0,0.6 -4.2,2.3 -5.6,2.3 -0.5,0 -0.9,0.3 -0.9,0.7 0,0.5 0.7,0.7 2.8,0.6 1.5,-0.0 3.5,-0.3 4.2,-0.5 z m 22.7,-20.0 c -0.3,-0.1 -0.9,0.0 -1.3,0.3 -0.4,0.4 -0.1,0.4 0.7,0.2 0.7,-0.1 0.9,-0.4 0.5,-0.5 z m 666.8,-2.1 c 0,-0.2 -0.7,-0.4 -1.6,-0.5 -0.9,-0.0 -1.5,0.1 -1.3,0.4 0.3,0.6 3.0,0.7 3.0,0.1 z m -665.2,-3.4 1.3,-0.0 -1.2,-0.5 c -1.4,-0.5 -3.9,-0.1 -3.9,0.7 0,0.3 0.5,0.4 1.2,0.2 0.6,-0.1 1.8,-0.3 2.6,-0.3 z m 660.8,0.1 c 0,-0.2 -0.3,-0.4 -0.8,-0.4 -0.4,0 -0.8,0.2 -0.8,0.4 0,0.2 0.3,0.4 0.8,0.4 0.4,0 0.8,-0.2 0.8,-0.4 z m 2.3,0.0 c -0.3,-0.1 -0.8,-0.1 -1.0,0.0 -0.1,0.1 0.1,0.3 0.7,0.2 0.6,-0.0 0.7,-0.1 0.3,-0.3 z M 220.9,306.1 c -0.3,-0.1 -0.8,-0.1 -1.0,0.0 -0.1,0.1 0.1,0.3 0.7,0.2 0.6,-0.0 0.7,-0.1 0.3,-0.3 z m -61.9,-0.7 c 0,-0.3 -0.2,-0.5 -0.5,-0.5 -0.3,0 -0.5,0.2 -0.5,0.5 0,0.3 0.2,0.5 0.5,0.5 0.3,0 0.5,-0.2 0.5,-0.5 z m 14.3,-1.4 c 0,-0.6 -1.0,-0.0 -1.3,0.6 -0.2,0.7 -0.2,0.7 0.4,0.2 0.4,-0.3 0.8,-0.7 0.8,-0.9 z m 5.5,0.0 c 0,-0.4 -0.0,-0.8 -0.2,-0.8 -0.1,0 -0.3,0.3 -0.5,0.8 -0.1,0.4 -0.0,0.8 0.2,0.8 0.2,0 0.5,-0.3 0.5,-0.8 z m 722.7,-18.8 c -0.3,-0.1 -0.8,-0.1 -1.0,0.0 -0.1,0.1 0.1,0.3 0.7,0.2 0.6,-0.0 0.7,-0.1 0.3,-0.3 z M 393.3,274.0 c 0.1,-0.2 0.0,-0.6 -0.1,-0.8 -0.2,-0.1 -0.6,0.0 -0.8,0.5 -0.3,0.8 0.4,1.1 1.0,0.3 z m -262.0,236.9 c -0.3,-0.3 -0.3,-0.6 -0.0,-0.7 0.2,-0.0 0.0,-0.2 -0.5,-0.6 -1.4,-0.8 -0.1,-1.5 2.6,-1.5 1.4,0.0 1.8,0.1 1.1,0.4 -1.0,0.3 -1.8,1.7 -0.9,1.7 1.6,-0.0 2.7,-0.7 2.5,-1.5 -0.2,-0.7 -0.1,-0.7 0.5,0.0 0.9,1.1 5.1,1.3 5.5,0.2 0.1,-0.5 0.4,-0.5 1.0,0.0 1.0,0.8 1.7,3.0 0.7,2.7 -0.3,-0.1 -0.5,-0.5 -0.4,-0.9 0.1,-0.5 -0.1,-0.4 -0.8,0.1 -0.8,0.7 -2.0,0.9 -5.8,0.8 -3.0,-0.0 -5.0,-0.3 -5.4,-0.8 z m -7.5,-1.2 c -0.7,-0.4 -0.3,-1.6 0.4,-1.6 0.6,0 1.1,1.5 0.6,1.8 -0.2,0.1 -0.7,0.0 -1.1,-0.1 z m 11.6,-4.4 c -0.6,-0.9 -0.5,-1.1 0.5,-1.1 0.6,-0.0 1.6,-0.1 2.0,-0.1 1.4,-0.1 1.7,0.3 0.7,1.4 -1.2,1.3 -2.5,1.3 -3.4,-0.0 z m 334.4,-4.1 c 0,-0.1 0.2,-0.3 0.5,-0.5 0.3,-0.1 0.5,-0.0 0.5,0.2 0,0.3 -0.2,0.5 -0.5,0.5 -0.3,0 -0.5,-0.1 -0.5,-0.2 z m 6.4,-0.3 c 0.3,-0.3 0.8,-0.5 0.9,-0.3 0.1,0.1 -0.1,0.4 -0.6,0.6 -0.7,0.2 -0.8,0.2 -0.3,-0.3 z m -296.3,-1.5 c 0,-0.2 0.3,-0.8 0.8,-1.1 0.6,-0.5 0.9,-0.5 1.5,-0.0 0.5,0.5 0.4,0.7 -0.1,1.1 -1.0,0.6 -2.2,0.6 -2.2,0.0 z m 623.3,-5.0 c 0,-0.3 0.3,-0.5 0.7,-0.5 0.4,0 0.9,0.2 1.1,0.5 0.1,0.3 -0.1,0.5 -0.7,0.5 -0.6,0 -1.1,-0.2 -1.1,-0.5 z m -9.3,-0.5 c 0,-0.6 1.4,-0.6 1.8,-0.0 0.1,0.2 -0.2,0.4 -0.7,0.5 -0.5,0.0 -1.0,-0.1 -1.0,-0.4 z m -547.5,-0.8 c -0.4,-1.2 0.2,-1.4 2.1,-0.5 0.9,0.4 1.5,0.9 1.2,0.9 -2.3,0.3 -3.1,0.2 -3.4,-0.4 z m 477.3,-1.2 c 0,-0.3 0.1,-0.5 0.2,-0.5 0.1,0 0.3,0.2 0.5,0.5 0.1,0.3 0.0,0.5 -0.2,0.5 -0.3,0 -0.5,-0.2 -0.5,-0.5 z m -7.9,-0.4 c -0.2,-0.3 -0.2,-0.8 -0.1,-1.0 0.4,-0.4 1.0,0.2 0.7,1.0 -0.1,0.5 -0.3,0.5 -0.6,-0.0 z m 2.0,0.1 c -1.1,-0.4 -0.7,-1.2 0.4,-0.8 0.6,0.1 1.1,0.5 1.1,0.7 0,0.5 -0.4,0.5 -1.5,0.1 z m 264.6,-2.7 c -0.6,-0.6 -0.4,-1.2 0.4,-1.2 0.4,0 0.8,0.3 0.8,0.8 0,0.8 -0.6,1.0 -1.2,0.4 z m -685.1,-3.3 c -0.1,-0.2 0.2,-0.4 0.8,-0.5 0.5,-0.0 0.9,0.1 0.7,0.4 -0.3,0.6 -1.1,0.6 -1.5,0.0 z m 4.9,-0.9 c 0.1,-0.4 0.7,-0.8 1.2,-0.8 0.4,-0.0 2.0,-0.1 3.3,-0.2 1.7,-0.1 2.2,-0.0 1.6,0.3 -0.6,0.4 -0.6,0.5 -0.0,0.5 0.4,0.0 0.6,0.1 0.4,0.3 -0.1,0.1 -1.8,0.4 -3.6,0.5 -2.7,0.1 -3.2,0.0 -3.0,-0.6 z M 77.0,482.7 c -0.4,-0.6 0.6,-1.3 1.3,-0.8 0.6,0.3 0.2,1.3 -0.5,1.3 -0.2,0 -0.6,-0.2 -0.8,-0.5 z m 5.2,-14.3 c 0,-0.2 0.2,-0.6 0.5,-0.8 0.3,-0.1 0.4,0.0 0.2,0.5 -0.3,0.9 -0.7,1.1 -0.7,0.3 z m 4.0,-0.2 c 0,-0.4 0.2,-0.6 0.4,-0.5 0.2,0.1 0.3,0.5 0.1,0.8 -0.4,0.7 -0.6,0.6 -0.6,-0.2 z M 1048.4,396.0 c -0.4,-0.2 -0.5,-0.5 -0.2,-0.5 0.3,0 0.9,0.2 1.3,0.5 0.4,0.2 0.5,0.5 0.2,0.5 -0.3,0 -0.9,-0.2 -1.3,-0.5 z M 141.3,355.0 c 0,-0.2 0.4,-0.4 1.1,-0.4 0.6,0 1.1,0.2 1.1,0.5 0,0.2 -0.4,0.4 -1.1,0.4 -0.6,-0.0 -1.1,-0.2 -1.1,-0.5 z m 23.1,-8.1 -1.2,-1.0 3.3,-0.4 c 1.8,-0.2 4.6,-0.4 6.2,-0.4 1.5,-0.0 2.8,-0.2 2.8,-0.4 5.3e-4,-0.4 3.2,0.4 3.8,0.9 0.1,0.2 -0.4,0.2 -1.3,0.0 -1.0,-0.1 -2.3,0.0 -3.3,0.5 -0.8,0.4 -2.9,0.8 -4.5,0.9 -1.5,0.0 -2.8,0.2 -2.8,0.4 0,0.7 -1.5,0.4 -2.8,-0.6 z m -6.9,0.1 c 0.1,-0.1 0.6,-0.2 1.0,-0.0 0.4,0.1 0.3,0.3 -0.3,0.3 -0.5,0.0 -0.9,-0.1 -0.7,-0.2 z m -10.0,-7.6 c -0.0,-0.5 0.1,-0.9 0.2,-0.7 0.1,0.1 0.2,0.6 0.0,1.0 -0.1,0.4 -0.3,0.3 -0.3,-0.3 z m 15.0,-4.6 c 0.1,-0.2 -0.2,-0.8 -0.8,-1.4 -1.1,-0.9 -1.0,-0.9 2.2,-2.5 4.0,-1.9 4.4,-1.9 4.4,-0.5 0,0.6 -0.3,1.1 -0.9,1.1 -0.7,0.0 -0.8,0.1 -0.1,0.5 0.4,0.2 1.2,0.4 1.7,0.2 0.5,-0.1 1.0,0.0 1.0,0.3 0,0.3 -0.8,0.5 -1.7,0.4 -0.9,-0.0 -2.2,-0.0 -2.8,-0.0 -0.9,0.0 -0.9,0.1 -0.2,0.5 0.7,0.4 0.6,0.5 -0.1,0.5 -0.5,0.0 -0.9,0.2 -0.9,0.5 0,0.3 -0.3,0.5 -0.8,0.5 -0.4,0 -0.7,-0.2 -0.5,-0.4 z m 7.0,-4.4 c -0.5,-0.3 -0.5,-0.5 0.1,-1.1 0.8,-0.7 1.6,-0.0 0.9,0.9 -0.2,0.3 -0.7,0.4 -1.0,0.2 z m -19.1,-23.2 c -0.1,-0.3 0.0,-0.5 0.4,-0.5 0.4,0 0.9,0.2 1.1,0.5 0.1,0.3 -0.0,0.5 -0.4,0.5 -0.4,0 -0.9,-0.2 -1.1,-0.5 z m 11.3,-2.4 c 0.7,-0.9 1.1,-1.0 1.1,-0.3 0,0.2 -0.4,0.6 -0.9,0.8 -0.7,0.2 -0.7,0.2 -0.2,-0.4 z m 780.2,-8.9 c 0.6,-0.6 4.1,-1.1 4.8,-0.7 0.4,0.2 0.4,0.5 0.1,0.5 -2.9,0.3 -5.3,0.4 -5.0,0.1 z m -3.3,-0.6 c -0.4,-0.2 -0.1,-0.4 0.9,-0.4 0.9,0 1.6,0.2 1.6,0.4 0,0.5 -1.7,0.5 -2.6,-0.0 z m -14.1,-0.7 c -2.3,-0.5 -8.1,-0.9 -18.8,-1.2 -3.6,-0.1 -7.2,-0.4 -7.8,-0.8 -0.7,-0.3 -3.1,-0.5 -6.1,-0.4 -2.7,0.0 -4.9,0.0 -4.9,0.0 0,-0.1 3.2,-1.8 3.5,-1.8 0.1,0 0.1,0.2 -0.0,0.5 -0.1,0.3 0.3,0.5 1.3,0.5 0.9,0 1.6,-0.2 1.6,-0.5 0,-0.3 0.2,-0.5 0.5,-0.5 0.3,0 0.3,0.3 0.1,0.6 -0.3,0.5 -0.2,0.5 0.3,0.1 0.4,-0.3 1.2,-0.5 1.9,-0.4 0.6,0.0 2.4,0.1 4.0,0.1 1.6,0.0 2.8,0.2 2.6,0.4 -0.1,0.2 1.2,0.3 3.1,0.3 1.8,-0.0 3.8,0.1 4.3,0.4 0.6,0.3 0.9,0.3 0.9,-0.0 0,-0.3 0.3,-0.4 0.6,-0.1 0.3,0.2 2.7,0.4 5.3,0.5 2.5,0.0 4.7,0.1 4.7,0.2 0,0.0 1.2,0.1 2.7,0.2 1.5,0.0 2.8,0.2 2.8,0.3 0.1,0.1 0.6,0.2 1.6,0.4 0.4,0.0 -2.1,1.6 -2.6,1.6 -0.1,-0.0 -1.2,-0.2 -2.4,-0.5 z m -22.3,-2.7 c 0,-0.2 -0.4,-0.4 -1.0,-0.4 -0.5,0 -1.2,0.2 -1.3,0.4 -0.1,0.2 0.3,0.4 1.0,0.4 0.7,0 1.3,-0.2 1.3,-0.4 z m 29.5,-1.5 c -0.1,-0.3 -0.5,-0.4 -0.8,-0.2 -0.2,0.1 -0.5,0.0 -0.5,-0.2 0,-1.0 0.8,-1.0 1.5,-0.0 0.3,0.5 0.5,1.0 0.4,1.0 -0.1,0 -0.4,-0.2 -0.5,-0.5 z m -11.8,-2.1 c -0.5,-0.5 -1.1,-0.9 -1.3,-0.8 -0.1,0.1 -1.4,0.3 -2.9,0.4 -2.5,0.1 -5.7,-0.9 -4.9,-1.7 0.6,-0.6 4.4,-0.4 5.2,0.2 0.8,0.7 2.4,0.7 3.1,0.0 0.5,-0.5 3.4,-0.4 3.7,0.1 0.5,0.8 -0.2,2.7 -1.1,2.7 -0.4,0 -1.2,-0.4 -1.8,-1.0 z m 5.6,0.4 c -0.2,-0.3 -0.1,-0.4 0.2,-0.2 0.3,0.2 0.7,0.1 0.9,-0.1 0.5,-0.8 1.2,-0.6 1.2,0.2 0,0.9 -1.7,1.1 -2.3,0.1 z m -645.4,-4.1 c 0.1,-0.1 0.6,-0.2 1.0,-0.0 0.4,0.1 0.3,0.3 -0.3,0.3 -0.5,0.0 -0.9,-0.1 -0.7,-0.2 z m 111.3,-15.6 c 0,-0.3 0.1,-0.5 0.2,-0.5 0.1,0 0.3,0.2 0.5,0.5 0.1,0.3 0.0,0.5 -0.2,0.5 -0.3,0 -0.5,-0.2 -0.5,-0.5 z m 12.8,0.0 c -0.8,-0.6 -0.6,-1.5 0.3,-1.3 0.6,0.1 1.0,-0.0 1.0,-0.6 0.0,-0.4 0.1,-1.2 0.1,-1.6 0.0,-0.4 0.5,-0.8 1.1,-0.8 0.5,-0.0 1.1,-0.1 1.4,-0.1 0.2,-0.0 1.1,-0.3 2.0,-0.5 2.0,-0.5 3.1,-1.3 2.7,-2.0 -0.1,-0.2 0.1,-0.4 0.7,-0.4 0.5,0 1.2,0.3 1.3,0.6 0.1,0.4 0.4,0.5 0.7,0.0 0.8,-1.0 2.5,-1.3 3.3,-0.6 0.7,0.5 0.7,0.5 0.3,-0.0 -0.3,-0.5 -0.2,-0.6 0.4,-0.4 0.5,0.2 1.2,0.3 1.7,0.3 0.4,0 0.8,0.4 1.0,1.0 0.2,0.6 0.6,0.9 1.3,0.7 1.4,-0.3 1.2,-1.7 -0.1,-1.4 -1.1,0.2 -1.1,0.1 -0.0,-0.3 0.6,-0.2 1.9,-0.5 2.9,-0.5 1.0,-0.0 3.3,-0.2 5.2,-0.5 4.8,-0.7 16.9,-2.1 22.4,-2.5 2.5,-0.1 5.8,-0.4 7.1,-0.5 2.8,-0.2 8.5,-0.6 16.0,-1.1 2.8,-0.1 6.8,-0.4 8.8,-0.6 4.7,-0.4 12.2,-0.4 13.2,-0.0 0.4,0.1 1.8,0.4 3.1,0.7 1.2,0.2 2.3,0.6 2.3,0.8 0,0.2 -0.6,1.0 -1.3,1.7 -1.1,1.1 -1.8,1.3 -4.1,1.3 -1.6,-0.0 -2.7,0.1 -2.5,0.5 0.1,0.3 2.0,0.5 4.4,0.6 3.6,0.0 6.1,0.7 5.2,1.5 -0.3,0.3 -7.6,0.7 -7.6,0.3 4.9e-4,-0.1 -1.6,-0.2 -3.7,-0.1 -2.0,0.0 -5.1,-0.0 -6.8,-0.3 -1.7,-0.2 -3.2,-0.3 -3.4,-0.2 -0.1,0.1 -1.3,0.3 -2.6,0.3 -1.3,0.0 -3.0,0.3 -3.8,0.5 -0.9,0.2 -1.8,0.1 -2.2,-0.1 -0.3,-0.3 -3.1,-0.6 -6.0,-0.7 -3.6,-0.0 -5.2,-0.3 -4.9,-0.7 0.1,-0.3 -0.0,-0.2 -0.5,0.1 -0.6,0.5 -1.6,0.6 -3.1,0.4 -1.4,-0.2 -2.1,-0.1 -1.8,0.2 0.3,0.6 0.3,0.6 -4.6,0.7 -1.9,0.0 -4.1,0.2 -4.8,0.5 -0.6,0.2 -1.2,0.2 -1.2,-0.0 0,-0.2 -0.6,-0.4 -1.3,-0.4 -0.7,0 -1.3,0.1 -1.3,0.4 0,0.2 -0.3,0.4 -0.8,0.4 -0.4,0 -0.7,-0.2 -0.5,-0.4 0.3,-0.6 -5.2,0.2 -5.6,0.9 -0.7,1.1 -11.0,2.3 -11.0,1.2 0,-0.3 -0.2,-0.5 -0.5,-0.5 -0.3,0 -0.4,0.2 -0.2,0.5 0.4,0.8 -0.7,1.3 -1.5,0.6 -0.5,-0.4 -0.8,-0.4 -1.0,0.1 -0.1,0.4 -1.0,0.6 -2.5,0.5 -1.2,-0.0 -2.2,0.1 -2.2,0.3 0,0.9 -2.8,0.3 -3.3,-0.7 -0.2,-0.5 -0.7,-0.8 -1.0,-0.6 -0.2,0.1 -0.4,0.5 -0.2,0.7 0.1,0.2 -0.0,0.5 -0.5,0.7 -0.4,0.1 -0.9,0.0 -1.1,-0.2 -0.2,-0.3 -0.9,-0.2 -1.8,0.2 -1.6,0.9 -6.9,1.9 -7.6,1.4 z m -7.9,-2.5 c 0,-0.9 0.3,-1.1 0.8,-0.3 0.1,0.2 0.0,0.6 -0.2,0.8 -0.3,0.1 -0.5,-0.0 -0.5,-0.5 z m 2.0,-0.9 c 0.3,-0.3 0.9,-0.4 1.3,-0.3 0.4,0.1 0.1,0.3 -0.5,0.5 -0.9,0.2 -1.1,0.1 -0.7,-0.2 z m 190.1,-1.4 c -0.6,-0.1 -1.2,-0.4 -1.2,-0.6 0,-0.6 2.3,-0.3 2.6,0.4 0.1,0.3 0.1,0.6 0.0,0.5 -0.1,-0.0 -0.7,-0.1 -1.4,-0.3 z m -11.4,-1.2 c 1.5,-0.6 2.3,-0.6 1.3,0 -0.4,0.2 -1.2,0.5 -1.6,0.5 -0.5,-0.0 -0.4,-0.1 0.2,-0.5 z m 3.3,0.0 c -0.1,-0.2 0.1,-0.3 0.7,-0.2 1.2,0.3 1.4,0.7 0.3,0.7 -0.4,0 -0.9,-0.2 -1.1,-0.5 z m -71.0,-1.2 c -0.8,-0.8 -0.4,-0.9 6.3,-0.9 4.0,-0.0 7.8,-0.1 8.5,-0.2 0.6,-0.1 1.3,-0.0 1.5,0.2 0.1,0.2 1.0,0.4 1.9,0.3 2.5,-0.1 2.5,0.6 0.0,0.8 -1.1,0.1 -2.0,0.0 -1.8,-0.2 0.4,-0.7 -0.3,-0.4 -1.2,0.4 -0.9,0.9 -3.2,1.1 -3.7,0.2 -0.2,-0.3 -0.7,-0.3 -1.4,0.0 -1.2,0.6 -2.3,0.2 -1.8,-0.6 0.2,-0.3 0.1,-0.4 -0.4,-0.1 -0.4,0.2 -2.1,0.6 -3.8,0.7 -2.3,0.2 -3.2,0.0 -3.9,-0.6 z m 44.2,0.6 c 0,-0.3 0.1,-0.5 0.2,-0.5 0.1,0 0.3,0.2 0.5,0.5 0.1,0.3 0.0,0.5 -0.2,0.5 -0.3,0 -0.5,-0.2 -0.5,-0.5 z M 531.7,260.7 c -0.4,-0.3 -0.5,-0.5 -0.1,-0.5 0.3,-0.0 0.8,0.2 0.9,0.5 0.4,0.6 0.2,0.6 -0.8,0 z m 215.6,-0.0 c 0.2,-0.4 -1.8,-1.0 -2.2,-0.5 -0.5,0.5 -3.0,0.7 -3.0,0.1 0,-0.3 -1.5,-0.4 -4.2,-0.2 -3.3,0.2 -4.7,0.1 -6.2,-0.5 -1.0,-0.4 -1.5,-0.7 -1.0,-0.6 0.5,0.1 1.0,0.0 1.1,-0.2 0.0,-0.2 0.5,-0.5 1.0,-0.6 0.4,-0.0 1.0,-0.4 1.2,-0.7 0.2,-0.3 0.4,-0.0 0.4,0.6 0.0,1.1 0.0,1.1 1.5,0.4 1.3,-0.7 1.5,-0.6 2.2,0.1 0.7,0.9 0.7,0.9 0.4,0 -0.2,-0.7 -0.0,-0.9 1.0,-0.9 0.7,0 1.5,0.4 1.8,0.9 0.3,0.5 0.5,0.6 0.5,0.2 0.0,-0.7 1.6,-0.9 1.6,-0.2 0,0.2 1.8,0.3 4.1,0.3 2.2,-0.0 4.2,0.1 4.4,0.4 0.1,0.2 0.8,0.4 1.4,0.4 0.9,0 1.0,0.1 0.4,0.6 -0.6,0.6 -7.3,1.0 -6.9,0.3 z m 9.0,-0.0 c 0,-0.2 0.1,-0.4 0.4,-0.4 0.2,-0.0 1.2,-0.1 2.1,-0.2 2.1,-0.2 2.9,0.6 0.8,1.0 -2.0,0.3 -3.4,0.2 -3.4,-0.2 z m -39.7,-1.8 c 9e-5,-0.3 -0.9,-0.5 -2.0,-0.5 -1.1,0 -2.2,0.2 -2.4,0.5 -0.2,0.3 -0.4,0.3 -0.4,0 -0.0,-0.6 -3.3,-0.8 -3.3,-0.1 0,0.2 -0.2,0.3 -0.5,0.1 -0.5,-0.3 -5.3,-0.8 -10.5,-1.1 -1.6,-0.0 -3.0,-0.2 -3.0,-0.2 0,-0.3 -7.2,-0.3 -7.7,-0.0 -0.8,0.6 -6.3,1.1 -6.3,0.5 0,-0.2 -0.3,-0.5 -0.8,-0.5 -0.4,0 -0.8,0.2 -0.8,0.5 0,0.3 -3.8,0.4 -10.3,0.2 -5.6,-0.1 -10.9,-0.2 -11.6,-0.2 -0.7,0.0 -2.1,-0.2 -3.1,-0.5 -1.1,-0.3 -1.8,-0.3 -1.8,-0.0 0,0.5 -1.9,0.4 -2.4,-0.1 -0.1,-0.1 -2.6,-0.1 -5.5,-0.0 -3.5,0.1 -5.5,-0.0 -6.0,-0.4 -0.6,-0.5 -0.7,-0.4 -0.7,0.1 -0.0,0.4 -0.1,0.5 -0.4,0.1 -0.2,-0.3 -3.3,-0.6 -7.8,-0.6 -4.0,-0.0 -16.5,-0.2 -27.6,-0.3 -11.0,-0.1 -25.3,-0.3 -31.6,-0.3 -6.3,-0.0 -11.4,-0.2 -11.4,-0.4 -4.9e-4,-0.1 -1.3,-0.3 -3.0,-0.3 -1.6,0 -3.0,0.1 -3.0,0.4 8e-5,0.2 -0.2,0.4 -0.5,0.4 -0.3,0 -0.4,-0.2 -0.2,-0.5 0.1,-0.3 -0.0,-0.5 -0.5,-0.5 -0.4,2.5e-4 -0.8,-0.2 -0.8,-0.5 0,-0.3 -0.2,-0.5 -0.5,-0.5 -0.3,0 -0.4,0.2 -0.2,0.5 0.2,0.3 -0.4,0.5 -1.4,0.5 -1.3,-0.0 -1.6,-0.1 -0.9,-0.5 0.6,-0.3 0.6,-0.5 0.0,-0.5 -0.5,-0.0 -0.5,-0.1 0.0,-0.8 0.4,-0.4 1.3,-0.8 1.9,-0.8 0.6,0 1.1,-0.2 1.1,-0.5 0,-0.3 0.4,-0.4 1.1,-0.2 0.7,0.2 1.0,0.1 0.7,-0.2 -0.2,-0.3 -0.2,-0.6 -0.0,-0.6 0.1,0 0.5,0.5 0.7,1.1 l 0.4,1.1 1.4,-1.1 c 0.9,-0.7 1.5,-0.9 1.8,-0.5 0.2,0.4 0.5,0.4 0.8,-0.1 0.3,-0.6 4.1,-0.7 20.2,-0.7 10.8,0.0 24.2,0.1 29.6,0.3 5.4,0.1 14.5,0.4 20.1,0.6 20.2,0.6 25.5,0.8 25.9,1.1 1.0,0.6 5.4,1.1 6.1,0.7 0.4,-0.2 0.8,-0.1 1.1,0.2 0.3,0.4 0.5,0.4 0.9,-0.1 0.2,-0.4 0.5,-0.5 0.5,-0.2 0.0,0.3 3.4,0.5 9.2,0.4 9.2,-0.0 24.9,0.8 24.9,1.4 3.5e-4,0.1 1.9,0.2 4.2,0.2 4.0,-0.0 13.3,0.6 14.9,1.2 0.6,0.1 0.6,0.3 0.0,1.0 -0.5,0.6 -0.5,0.7 0.0,0.5 0.4,-0.1 1.4,-0.3 2.3,-0.5 0.9,-0.2 1.4,-0.5 1.2,-1.0 -0.1,-0.3 -0.0,-0.2 0.3,0.1 0.5,0.6 1.2,0.7 3.7,0.4 1.7,-0.2 3.4,-0.1 4.0,0.1 0.5,0.2 1.6,0.5 2.5,0.5 1.4,0.0 1.4,0.0 0.2,0.3 -1.0,0.1 -1.1,0.3 -0.5,0.7 0.8,0.5 0.1,0.6 -7.6,0.7 -2.7,0.0 -4.5,-0.1 -4.5,-0.4 z m -160.4,-4.9 c -0.1,-0.4 -0.5,-0.6 -0.8,-0.5 -0.7,0.4 -0.5,1.3 0.3,1.3 0.4,0 0.6,-0.3 0.4,-0.8 z m -32.1,1.8 c 0.5,-1.0 0.5,-1.1 -0.2,-0.8 -0.7,0.2 -0.8,0.1 -0.2,-0.8 l 0.6,-1.2 0.5,1.2 c 0.6,1.4 1.7,1.6 2.2,0.4 0.1,-0.4 0.1,-0.8 -0.1,-0.8 -0.2,0 -0.4,-0.3 -0.4,-0.8 0,-0.6 0.4,-0.7 2.6,-0.4 1.8,0.2 2.6,0.1 2.6,-0.2 0,-0.3 0.8,-0.6 1.9,-0.6 1.2,0 1.8,0.2 1.5,0.6 -0.2,0.4 -0.0,0.4 0.7,-0.0 0.9,-0.5 1.1,-0.4 0.8,0.2 -0.1,0.4 -0.5,0.8 -0.8,0.8 -0.2,0 -0.4,0.2 -0.4,0.5 0,1.1 0.9,0.4 1.6,-1.1 0.7,-1.8 0.7,-1.8 2.1,-1.1 0.6,0.3 0.9,0.9 0.7,1.9 -0.1,0.7 -0.0,1.3 0.2,1.2 0.2,-0.0 0.6,0.0 0.7,0.3 0.1,0.3 -1.1,0.5 -3.2,0.6 -3.1,0.0 -3.5,-0.0 -4.0,-1.2 -0.5,-1.3 -2.6,-1.8 -2.6,-0.7 0,0.3 0.2,0.4 0.5,0.2 0.3,-0.1 0.4,0.0 0.2,0.4 -0.1,0.4 -0.6,0.6 -1.1,0.4 -0.5,-0.2 -0.7,-0.1 -0.4,0.2 0.4,0.7 -1.3,1.2 -3.5,1.0 -0.7,-0.0 -1.8,0.0 -2.3,0.3 -0.9,0.4 -0.9,0.3 -0.3,-0.7 z m 15.1,-2.0 c 0.1,-0.2 -0.0,-0.4 -0.4,-0.4 -0.4,0 -0.6,0.2 -0.4,0.4 0.1,0.2 0.3,0.4 0.4,0.4 0.1,0 0.3,-0.2 0.4,-0.4 z m -22.5,2.1 c -0.1,-0.2 0.1,-0.6 0.7,-0.7 0.7,-0.1 0.9,-0.5 0.7,-1.1 -0.1,-0.4 -0.1,-0.8 0.1,-0.8 0.7,0 0.6,1.8 -0.1,2.6 -0.8,0.8 -1.1,0.8 -1.5,0.2 z m 3.3,-1.5 c 0.1,-0.4 0.3,-0.7 0.4,-0.7 0.0,0 0.2,0.3 0.4,0.7 0.1,0.4 -0.0,0.7 -0.4,0.7 -0.3,0 -0.5,-0.3 -0.4,-0.7 z m 2.1,-1.5 c 0.5,-0.4 1.6,-0.8 2.2,-0.8 1.3,-0.0 2.1,0.8 1.3,1.3 -0.2,0.1 -0.6,0.0 -0.7,-0.3 -0.1,-0.4 -0.5,-0.4 -1.3,-0.0 -1.6,0.9 -2.7,0.7 -1.4,-0.1 z m -7.3,-0.0 c 0.1,-0.1 0.6,-0.2 1.0,-0.0 0.4,0.1 0.3,0.3 -0.3,0.3 -0.5,0.0 -0.9,-0.1 -0.7,-0.2 z M 543.8,252.4 c -0.7,-0.4 -0.6,-0.5 0.1,-0.5 0.5,-0.0 0.9,0.2 0.9,0.5 0,0.6 -0.0,0.6 -1.1,0 z m -2.9,-0.8 c -0.2,-0.6 -0.1,-0.7 0.7,-0.2 1.2,0.6 1.4,1.0 0.3,1.0 -0.4,0 -0.9,-0.3 -1.0,-0.8 z"/>
      </g>
</svg>
