<svg id="Layer_1" data-name="Layer 1" xmlns="http://www.w3.org/2000/svg" viewBox="0 0 286.5 150.47"><defs><style>.cls-1{fill:#231f20;stroke:#231f20;stroke-width:0.38px;}</style></defs><path class="cls-1" d="M299.67,93.63" transform="translate(-19.8 -19.81)"/><path class="cls-1" d="M274.56,29.26a1.38,1.38,0,1,0,1.38-1.38A1.37,1.37,0,0,0,274.56,29.26Z" transform="translate(-19.8 -19.81)"/><path class="cls-1" d="M268.63,117.64s-20.72,11.28-37.26-5.26c-7.19-7.19-8.13-13.43-6.89-18.2-3.85,2.07-8.36,3.48-12.7,6.4-.36.25-.73.48-1.11.7a16.62,16.62,0,0,0,1,13.59c2.71,5.07,11.62,15.78,35.2,11.53,0,0-14.08,1.09-22.37-7.19a18.87,18.87,0,0,1-5.74-12.86,17,17,0,0,0,1.89,2.55C221.48,109.79,242.16,133.69,268.63,117.64Z" transform="translate(-19.8 -19.81)"/><path class="cls-1" d="M285.91,162.57a2.77,2.77,0,0,0-2.65-.18s0-.23-1.15-.39a58.53,58.53,0,0,0-6.56.41s1-.66,1.89-1.14,1.05-1,1.05-1l.62-.09a.94.94,0,0,1,.9.32,1.21,1.21,0,0,0-.48-1,1.78,1.78,0,0,0-1.29-.2,3.07,3.07,0,0,0-1.41-.65c-.63,0-5.82,2-9,1.68a6,6,0,0,1-3.75-2.36,4.38,4.38,0,0,1-1.89.88,11.14,11.14,0,0,1-2.57.08c.34.92.48,1.6.34,1.8-.53.7-7.17.53-8.74.76a1.85,1.85,0,0,0-1.48,1.94,2.51,2.51,0,0,0,.54-.6c.36-.48,1-.15,1-.15A4.51,4.51,0,0,0,252,164c.41.45,7.93,0,9.47.32s1.83,1.21,2.55,2.18A15.2,15.2,0,0,0,267,169c.32.24-.53,1-.53,1l.5-.07a4.93,4.93,0,0,0,2.09-1.29c.36-.48-.2-1.34-.2-1.34l-.47-2s12.53.17,14.65-.14,2.15-.9,2.15-.9l.56-.08a4.12,4.12,0,0,1,1.74.59A4.4,4.4,0,0,0,285.91,162.57Z" transform="translate(-19.8 -19.81)"/><path class="cls-1" d="M234.58,162s.07-.22-1-.64a6.65,6.65,0,0,0-1.24-.25.86.86,0,0,0-.13-.2,1.77,1.77,0,0,0-1.2-.48,1.64,1.64,0,0,0-.87-.46c-.36-.1-3.68.26-4.61-.74a21,21,0,0,1-2.82-4.34c-.44-.85-.16-2.16.52-3.63a4.81,4.81,0,0,1-1.65-1.27,11.49,11.49,0,0,1-1.47-2.09c-.58.78-1.07,1.27-1.32,1.26-.88-.05-4.38-5.7-5.44-6.88a1.83,1.83,0,0,0-2.43-.17,2.57,2.57,0,0,0,.8.12c.59,0,.67.76.67.76a4.8,4.8,0,0,0-.67,1.28c-.15.59,4.38,6.62,4.93,8.09s0,2.2-.42,3.33a15.57,15.57,0,0,0-.45,3.82c0,.39-1.13.1-1.13.1l.34.37a4.8,4.8,0,0,0,2.23,1c.59,0,1-.9,1-.9l1.39-1.48s2.19,2.62,4,4.47c.9.9,5.94,1.67,10.51,1.67,2.14,0,1.88-.53,1.88-.53l.56,0c.56,0,1.57,1,1.57,1a4.38,4.38,0,0,0-1-2.5A2.77,2.77,0,0,0,234.58,162Zm-2.13-.06a1.16,1.16,0,0,0,0-.37A.79.79,0,0,1,232.45,161.93Z" transform="translate(-19.8 -19.81)"/><path class="cls-1" d="M201.91,104.5c-1.14.22-2.06.35-2.6.42-1.79.24-9,2.74-12.19,3.21s-14.74,5.71-15.81,6.78a3.22,3.22,0,0,0-.65,2.79s-1.6.83-1.6,4,9.8,3.33,9.8,3.33l.95.48c.95.47,6.93.85,6.93.85l.38.39c.39.39,4.34.83,4.34.83s-.17.19-.43.44c10.43.7,21.89.63,30.8.63a34.61,34.61,0,0,1-18.19-9.8C199.33,114.57,200.09,109,201.91,104.5ZM302,86.19c-.87-1.17-.92-3.13-.27-2.33a4.2,4.2,0,0,0,1.06,1l-.57-1.16A30.54,30.54,0,0,1,301,79.8c-.14-.51-.28-1.15-.41-1.87.49-13.84.35-33.15-3.53-42.16-7.93-18.42-22.47-16.2-27.1-15a6.62,6.62,0,0,0-1.41.4h0a1.1,1.1,0,0,0-.64.3,12.46,12.46,0,0,0-3,2.35,4.62,4.62,0,0,0-1.3,2.86,1.18,1.18,0,0,0-.13,1.7,8,8,0,0,1-.25,1.55c1.43,1.19,4.28,2.95,4.63,3.85a2.44,2.44,0,0,1-1.11,3.3c-1.32.51-2-.8-2-2.23,0-2.78-.91-3.92-1.68-4.39-.15.29-.35.32-.85.61a19.49,19.49,0,0,0-2.63,1.63c-.42.41-.11,1.57-.11,1.57-1.53,2.16-2.38,4.58-1.59,5.37a17.07,17.07,0,0,1,6.29-1.72c2.58,0,5.33,1.15,5.33,7,0,1.86-1.3,5.47-3.69,10.15a3.26,3.26,0,0,0-1.39,2.61l-.43.77c-.49.4-1.47,1.29-3.35,3.2a16.71,16.71,0,0,0-3.3,4.95c-.59,1.63,0,2.19,0,2.19h0a62.18,62.18,0,0,1-4.42,5,33.12,33.12,0,0,1,21.75,9.63c9.72,9.72,9.63,21.39,4.64,26.38,0,0,16.07-16.16,20.43-16.16,0,0,.2-2.33.43-6,0-.84.22-2,1.35-1.1a8.87,8.87,0,0,0,1.62,1.12S302.87,87.36,302,86.19ZM278.64,29.68a2.6,2.6,0,1,1-5.1-.66,2.6,2.6,0,1,1,5.1.66ZM241,139.87c-1.11.1-2.23.18-3.36.21A9.55,9.55,0,0,1,241,139.87Zm18.17-4.71h0c-1.28,2.4-1.44,5.93-.12,10.67,1.13,4,2.9,9,4.13,10.84a15.1,15.1,0,0,1-1.73.81,3.65,3.65,0,0,1-2.33.11,23.29,23.29,0,0,0-5.25-5.64,31.34,31.34,0,0,1-7-6.43c-1.88-2.44-1.77-6.18-1.77-6.18h0c-1.36.24-2.74.42-4.14.55h0a9.55,9.55,0,0,0-3.36.21,20.44,20.44,0,0,0-7.2,3.6,26.67,26.67,0,0,0-6.56,6.5,5.77,5.77,0,0,1-2.72-3.31,17.75,17.75,0,0,0,3.17-6.55,5,5,0,0,1,.11-.51c-2.15-.14-3.8-.32-5-.53-1.86-.2-17-2.26-18.93-1.9-2.36.43-32.68,16.39-35,16.39a38.42,38.42,0,0,1-4.46.06c-.29-.18,1.25-1.66,1.49-1.9s.12-1,.71-1.31,13.67-8.25,17.72-12.3,8-8.26,8.79-9c0,0,.37-.19-.49.78-2.37,2.66-7.54,8.66-5.87,10.33,3.31,3.31,19-10.43,19-10.43s.18,0-.11.4c-.67,1-2,3.23-.16,5,2.58,2.58,13.1-5.44,13.1-5.44s.21,0-.15.38c-1,1.15-3.37,3.86-3.46,5.42.78,1.64,6.62-.2,9.13-2.41.46-.47.32-.11.27,0-.14.48.72,2,3.43,2a89.54,89.54,0,0,0,42.34-8.64c14.26-6.65,28.82-19.44,28.82-19.44S280.84,126,259.14,135.16Z" transform="translate(-19.8 -19.81)"/><path class="cls-1" d="M153.54,163.66l0-.87,14.59.56,0,.87Z" transform="translate(-19.8 -19.81)"/><path class="cls-1" d="M170.58,164.32l0-.88,14.59.45,0,.88Z" transform="translate(-19.8 -19.81)"/><path class="cls-1" d="M187.63,164.83l0-.88,14.59.34,0,.87Z" transform="translate(-19.8 -19.81)"/><path class="cls-1" d="M204.68,165.22l0-.87,14.59.22,0,.88Z" transform="translate(-19.8 -19.81)"/><path class="cls-1" d="M291.52,165.15l0-.87,14.59-.37,0,.88Z" transform="translate(-19.8 -19.81)"/><path class="cls-1" d="M33.87,25.74V31H32.33V29.09c0-1.73-.15-2-1.86-2h-2V39.24h3.25v1.39h-8V39.24h3.25V27.13h-2c-1.72,0-1.87.23-1.87,2V31H21.52V25.74Z" transform="translate(-19.8 -19.81)"/><path class="cls-1" d="M42.85,25.74v1.39H40.79v5.16h6.05V27.13H44.79V25.74h5.65v1.39H48.38V39.24h2.06v1.39H44.79V39.24h2.05V33.68H40.79v5.56h2.06v1.39H37.19V39.24h2.06V27.13H37.19V25.74Z" transform="translate(-19.8 -19.81)"/><path class="cls-1" d="M64.68,25.74v1.39h-4V39.24h4v1.39H55.2V39.24h4V27.13h-4V25.74Z" transform="translate(-19.8 -19.81)"/><path class="cls-1" d="M81.15,39.24h1.79v1.39H80.21l-4.52-6.78h-2.4v5.39h2.36v1.39H69.72V39.24h2V27.3l-2-.24V25.74A9.43,9.43,0,0,0,72,26c1.26,0,2.55-.3,3.82-.3,2.45,0,4.74,1.12,4.74,3.85a4,4,0,0,1-3.23,4Zm-7.86-6.72,1.29,0c3.15.05,4.36-1.17,4.36-2.78,0-1.89-1.36-2.63-3.1-2.63-.82,0-1.66.08-2.55.17Z" transform="translate(-19.8 -19.81)"/><path class="cls-1" d="M86,40.82l-.22-1.38,2-.2V27.33l-1.95-.42,0-1.17a19.28,19.28,0,0,0,2.36.3c1,0,1.91-.3,3-.3,3.6,0,6.63,2.33,6.63,7.54,0,5.46-2.73,7.35-6.06,7.35a28.46,28.46,0,0,0-3.32-.1Zm3.35-1.58h2.48c2.68,0,4.49-1.49,4.49-5.66,0-5-3-6.7-5.18-6.45l-1.79.2Z" transform="translate(-19.8 -19.81)"/><path class="cls-1" d="M118.91,25.44l1.39.45a5.81,5.81,0,0,0-.45,2.61l.13,1.88-1.47.25c-.1-2.28-.67-3.8-3.25-3.8-3.45,0-4.61,3.45-4.61,6.33s1.24,6.38,4.56,6.38c2.53,0,3.48-1.69,3.48-4h1.53v3.17a7.31,7.31,0,0,1-5.08,2.24c-2.68,0-6.1-2.06-6.1-7.9,0-5.67,3.42-7.59,6.15-7.59a7.7,7.7,0,0,1,3.4.85Z" transform="translate(-19.8 -19.81)"/><path class="cls-1" d="M136.6,33.18c0,3.78-1.84,7.75-6,7.75s-5.95-4-5.95-7.75,1.83-7.74,5.95-7.74S136.6,29.41,136.6,33.18Zm-1.62,0c0-2.82-1.14-6.35-4.34-6.35s-4.34,3.53-4.34,6.35,1.14,6.36,4.34,6.36S135,36,135,33.18Z" transform="translate(-19.8 -19.81)"/><path class="cls-1" d="M152.5,39.24h1.24v1.39h-5V39.24h2.13L149.67,36h-5.9l-1.17,3.2h2.16v1.39h-5V39.24H141l5.63-14.89Zm-5.83-11.41-2.43,6.82h4.93Z" transform="translate(-19.8 -19.81)"/><path class="cls-1" d="M163.21,25.44a6.5,6.5,0,0,1,2.81.65l.15-1,1.48.27-.22,2.48a7.66,7.66,0,0,0,.22,2.19l-1.51.22a6.52,6.52,0,0,0-.35-2.3,2.79,2.79,0,0,0-2.63-1.15c-1.36,0-3.27.65-3.27,2.53,0,4,8,1.82,8,7.37,0,2.51-2.16,4.2-5,4.2a6.78,6.78,0,0,1-3.47-.9l-.08.92-1.48-.2.24-2.63a7.5,7.5,0,0,0-.24-2.21l1.48-.22.15,1.19c.22,1.76,1.22,2.66,3.52,2.66,1.47,0,3.23-.77,3.23-2.66,0-4.42-8-2-8-7.42C158.28,26.78,160.81,25.44,163.21,25.44Z" transform="translate(-19.8 -19.81)"/><path class="cls-1" d="M185.19,25.74V31h-1.54V29.09c0-1.73-.14-2-1.86-2h-2V39.24H183v1.39h-8V39.24h3.25V27.13h-2c-1.71,0-1.86.23-1.86,2V31h-1.54V25.74Z" transform="translate(-19.8 -19.81)"/><path class="cls-1" d="M32.43,56.27v1.39h-4V69.77h4v1.39H23V69.77h4V57.66H23V56.27Z" transform="translate(-19.8 -19.81)"/><path class="cls-1" d="M40.57,56.27l6.87,12h.05V57.66H45.16V56.27h5.43v1.39H49v13.5H47.44L40.39,59V69.77h2.29v1.39H37V69.77h1.84V57.66H37V56.27Z" transform="translate(-19.8 -19.81)"/><path class="cls-1" d="M66.12,56.27v5.24H64.58V59.62c0-1.73-.15-2-1.86-2h-2V69.77H64v1.39h-8V69.77h3.25V57.66h-2c-1.71,0-1.86.23-1.86,2v1.89H53.77V56.27Z" transform="translate(-19.8 -19.81)"/><path class="cls-1" d="M73.66,57.66v4.69h3.4V60.27H78.6v5.8H77.06V63.74h-3.4v6H78.3c1.89,0,2.06-.22,2.06-3v-.47H81.9v4.84H69.64V69.77h2.48V57.66H69.64V56.27H81.43v4.32H79.89V60c0-2.06-.08-2.29-2-2.29Z" transform="translate(-19.8 -19.81)"/><path class="cls-1" d="M97.28,69.77h1.78v1.39H96.33l-4.51-6.77H89.41v5.38h2.36v1.39H85.84V69.77h2V57.84l-2-.25V56.27a9.43,9.43,0,0,0,2.28.3c1.27,0,2.56-.3,3.82-.3,2.46,0,4.74,1.12,4.74,3.85a4,4,0,0,1-3.22,4Zm-7.87-6.72,1.29,0c3.15,0,4.37-1.17,4.37-2.78,0-1.88-1.37-2.63-3.1-2.63a23.32,23.32,0,0,0-2.56.18Z" transform="translate(-19.8 -19.81)"/><path class="cls-1" d="M105.07,56.27l6.87,12h0V57.66h-2.33V56.27h5.43v1.39h-1.56v13.5h-1.59l-7-12.18V69.77h2.29v1.39h-5.66V69.77h1.84V57.66h-1.84V56.27Z" transform="translate(-19.8 -19.81)"/><path class="cls-1" d="M130.17,69.77h1.24v1.39h-5V69.77h2.13l-1.19-3.2h-5.9l-1.17,3.2h2.16v1.39h-5V69.77h1.24l5.63-14.88Zm-5.83-11.41-2.43,6.82h4.94Z" transform="translate(-19.8 -19.81)"/><path class="cls-1" d="M146.74,56.27v5.24H145.2V59.62c0-1.73-.14-2-1.85-2h-2V69.77h3.25v1.39h-8V69.77h3.25V57.66h-2c-1.71,0-1.86.23-1.86,2v1.89h-1.54V56.27Z" transform="translate(-19.8 -19.81)"/><path class="cls-1" d="M161.43,56.27v1.39h-4V69.77h4v1.39H152V69.77h4V57.66h-4V56.27Z" transform="translate(-19.8 -19.81)"/><path class="cls-1" d="M178.77,63.72c0,3.77-1.84,7.74-6,7.74s-5.95-4-5.95-7.74S168.7,56,172.81,56,178.77,60,178.77,63.72Zm-1.62,0c0-2.83-1.14-6.35-4.34-6.35s-4.34,3.52-4.34,6.35,1.14,6.35,4.34,6.35S177.15,66.55,177.15,63.72Z" transform="translate(-19.8 -19.81)"/><path class="cls-1" d="M185.69,56.27l6.87,12h.05V57.66h-2.33V56.27h5.43v1.39h-1.56v13.5h-1.59l-7-12.18V69.77h2.28v1.39h-5.66V69.77H184V57.66h-1.84V56.27Z" transform="translate(-19.8 -19.81)"/><path class="cls-1" d="M210.79,69.77H212v1.39h-5V69.77h2.14l-1.2-3.2h-5.9l-1.17,3.2h2.16v1.39h-5V69.77h1.24L205,54.89ZM205,58.36l-2.43,6.82h4.94Z" transform="translate(-19.8 -19.81)"/><path class="cls-1" d="M221.86,56.27v1.39h-2.81V69.77H223c2.73,0,2.66-.47,2.66-3.13V66h1.54v5.21H214.84V69.77h2.68V57.66h-2.68V56.27Z" transform="translate(-19.8 -19.81)"/><path class="cls-1" d="M33.42,100.3h1.24v1.39h-5V100.3h2.14L30.6,97.1H24.69l-1.17,3.2h2.16v1.39h-5V100.3H22l5.63-14.88ZM27.59,88.89l-2.43,6.82H30.1Z" transform="translate(-19.8 -19.81)"/><path class="cls-1" d="M50.17,86.81V88.2H48.51v9.15c0,3.23-1.59,4.64-4.69,4.64s-4.69-1.41-4.69-4.64V88.2H37.47V86.81h5V88.2H40.67v8.93c0,2.68,1.11,3.47,3.15,3.47S47,99.81,47,97.13V88.2H45.13V86.81Z" transform="translate(-19.8 -19.81)"/><path class="cls-1" d="M53.77,101.89l-.23-1.39,2-.2V88.39l-2-.42.05-1.16A18.85,18.85,0,0,0,56,87.1c1,0,1.91-.29,3-.29,3.6,0,6.63,2.33,6.63,7.54,0,5.46-2.73,7.34-6.05,7.34a31.1,31.1,0,0,0-3.33-.1Zm3.34-1.59H59.6c2.67,0,4.49-1.49,4.49-5.65,0-5-3-6.7-5.19-6.45l-1.79.19Z" transform="translate(-19.8 -19.81)"/><path class="cls-1" d="M80.81,86.81V88.2h-4v12.1h4v1.39H71.33V100.3h4V88.2h-4V86.81Z" transform="translate(-19.8 -19.81)"/><path class="cls-1" d="M98.14,94.25c0,3.77-1.83,7.74-6,7.74s-6-4-6-7.74,1.83-7.74,6-7.74S98.14,90.48,98.14,94.25Zm-1.61,0c0-2.83-1.14-6.35-4.34-6.35s-4.34,3.52-4.34,6.35,1.14,6.35,4.34,6.35S96.53,97.08,96.53,94.25Z" transform="translate(-19.8 -19.81)"/><path class="cls-1" d="M33.35,117.34v4.32H31.81V121c0-2-.1-2.28-2.06-2.28H25.58v5.08H29v-2.1h1.54v5.83H29V125.2h-3.4v5.63H30v1.39H21.61v-1.39h2.44v-12.1H21.61v-1.39Z" transform="translate(-19.8 -19.81)"/><path class="cls-1" d="M41.41,118.73v4.69h3.4v-2.09h1.54v5.81H44.81v-2.33h-3.4v6h4.64c1.89,0,2.06-.22,2.06-3v-.47h1.54v4.83H37.39v-1.39h2.48v-12.1H37.39v-1.39H49.18v4.32H47.64V121c0-2.06-.08-2.28-2-2.28Z" transform="translate(-19.8 -19.81)"/><path class="cls-1" d="M60.27,117a6.49,6.49,0,0,1,2.8.65l.15-1,1.49.27-.23,2.48a7.32,7.32,0,0,0,.23,2.19l-1.52.22a6.57,6.57,0,0,0-.34-2.31,2.8,2.8,0,0,0-2.63-1.14c-1.37,0-3.28.64-3.28,2.53,0,4,8,1.81,8,7.37,0,2.5-2.15,4.19-5,4.19a6.78,6.78,0,0,1-3.47-.89l-.08.92-1.48-.2.24-2.63a7.15,7.15,0,0,0-.24-2.21l1.48-.22.15,1.19c.23,1.76,1.22,2.65,3.53,2.65,1.46,0,3.22-.77,3.22-2.65,0-4.42-8-2-8-7.42C55.33,118.38,57.86,117,60.27,117Z" transform="translate(-19.8 -19.81)"/><path class="cls-1" d="M82.24,117.34v5.23H80.71v-1.88c0-1.74-.15-2-1.86-2h-2v12.1h3.25v1.39h-8v-1.39H75.3v-12.1h-2c-1.71,0-1.86.22-1.86,2v1.88H69.89v-5.23Z" transform="translate(-19.8 -19.81)"/><path class="cls-1" d="M96.93,117.34v1.39H93v12.1h4v1.39H87.45v-1.39h4v-12.1h-4v-1.39Z" transform="translate(-19.8 -19.81)"/><path class="cls-1" d="M106.75,117.34v1.39h-2.06l3.63,11.61,3.59-11.61h-2v-1.39h5.18v1.39h-1.58l-4.25,13.79h-1.86l-4.21-13.79h-1.59v-1.39Z" transform="translate(-19.8 -19.81)"/><path class="cls-1" d="M130.17,130.83h1.24v1.39h-5v-1.39h2.13l-1.19-3.2h-5.9l-1.17,3.2h2.16v1.39h-5v-1.39h1.24L124.34,116Zm-5.83-11.41-2.43,6.83h4.94Z" transform="translate(-19.8 -19.81)"/><path class="cls-1" d="M141.24,117.34v1.39h-2.81v12.1h3.92c2.73,0,2.66-.47,2.66-3.12V127h1.53v5.21H134.22v-1.39h2.67v-12.1h-2.67v-1.39Z" transform="translate(-19.8 -19.81)"/><path class="cls-1" d="M150.91,162.6l0,.86-14.3-.86.06-.86Z" transform="translate(-19.8 -19.81)"/><path class="cls-1" d="M134.25,161.6l-.05.86-14.29-.91,0-.86Z" transform="translate(-19.8 -19.81)"/><path class="cls-1" d="M117.58,160.54l-.06.85-14.28-1,.06-.85Z" transform="translate(-19.8 -19.81)"/><path class="cls-1" d="M101,159.42l-.06.85-14.28-1,.06-.86Z" transform="translate(-19.8 -19.81)"/><path class="cls-1" d="M84.3,158.24l-.06.86-14.27-1,.06-.86Z" transform="translate(-19.8 -19.81)"/><path class="cls-1" d="M67.65,157l-.06.86-14.27-1.07.06-.85Z" transform="translate(-19.8 -19.81)"/><path class="cls-1" d="M51,155.78l-.07.85-14.27-1.09.06-.86Z" transform="translate(-19.8 -19.81)"/><path class="cls-1" d="M34.34,154.48l-.07.86L20,154.2l.07-.85Z" transform="translate(-19.8 -19.81)"/></svg>