<?xml version="1.0" encoding="utf-8"?>
<!-- Generator: Adobe Illustrator 22.1.0, SVG Export Plug-In . SVG Version: 6.00 Build 0)  -->
<svg version="1.1" id="Layer_1" xmlns="http://www.w3.org/2000/svg" xmlns:xlink="http://www.w3.org/1999/xlink" x="0px" y="0px"
	 viewBox="0 0 500 500" style="enable-background:new 0 0 500 500;" xml:space="preserve">
<style type="text/css">
	.st0{fill:#88746A;}
	.st1{fill:#5B9B98;}
	.st2{fill:#EE3124;}
</style>
<g id="brown">
	<path class="st0" d="M444.8,207.2c-11.7-24-4.9-109.8-15.4-134.3C407.9,23,368.5,29,356,32.3c-1.3,0.2-16.5,6.2-17.3,16
		c-1.5,1-1.5,3-0.4,4.6c-0.1,1.4-0.3,2.8-0.7,4.2c3.9,3.2,11.6,8,12.5,10.4c1.3,3.4,0.5,7.6-3,8.9c-3.6,1.4-5.5-2.2-5.5-6.1
		c0-7.5-2.5-10.6-4.5-11.9c-0.5,1.4-8.3,4.9-9.4,6.1c-1.1,1.1-0.3,4.3-0.3,4.3c-4.1,5.9-6.4,12.4-4.3,14.6c0,0,9.3-4.7,17-4.7
		c7,0,14.5,3.1,14.5,18.9c0,5-3.5,14.8-10,27.5c-3.1,2.2-3.7,5.4-3.8,7.1c-0.4,0.7-8.9,7.9-19.2,24.2c-1.9,4.3-0.1,5.9-0.1,5.9
		s0,0,0.1,0c-2.3,6.8-4.2,9.8-12,13.5c55.6,19.3,79.5,66.8,71.5,97.6c0,0,16.8-35.8,55.4-43.8c0-0.1-4.8-25.5,4.3-15.4
		C435.7,203.8,436.8,197.3,444.8,207.2z M379.5,56.4c-0.6,4.4-4.1,7.6-7.9,7.1c-3.8-0.5-6.4-4.5-5.9-8.9c0.6-4.4,4.1-7.6,8-7.1
		C377.5,48,380.1,52,379.5,56.4z"/>
	<path class="st0" d="M317.7,400.4c-3.3-5-4.4-52.6,9.1-58.3l-0.1,0c58.8-24.8,98.6-75.4,98.6-75.4s-39.5,34.6-78.1,52.7
		c-51.4,24-101.5,28.9-122.5,15c-7.5,10-24,12.6-26.9,9.5c-2.3-4.4,7.1-13.1,7.1-13.1s-25.5,18.6-32.5,11.6
		c-4.9-4.9,0.4-14.2,0.4-14.2s-42.5,37.2-51.4,28.3c-4.5-4.5,17.2-30.1,17.2-30.1c-2.5,1.7-12.9,13.4-23.8,24.3
		c-11,11-46.4,32.4-48,33.3c-1.6,0.9-1.1,3-1.9,3.5c-0.9,0.5-4.6,4.2-4,5.1c0.5,0.8,6,1.3,12.1-0.1c14.5-3.4,69.2-37.1,94.7-43.1
		c31.9-1.4,45.8,3.4,65.1,5.3c0.4,0-4.8,13.8-8.9,19.1c0.3,1.7,5.7,8,7.4,9c3.7-5.1,22.9-19.9,57-28.5c1.7,21,5.7,27.8,18.5,48.6
		C313.1,403.7,317.7,400.4,317.7,400.4z"/>
	<path class="st0" d="M171.8,259.1c0,0-15.1,51.8,54,65.6c-48.6,2.6-83.3-1.9-83.3-1.9s-3.2-0.8,2.5-4.6c-7.7,1-19,2.7-22.5-1.3
		c4.2-4.7-15.7,0.8-19.7-3.5c9.2-7-13.8-3.5-20-7C80.3,295.8,88.5,282,171.8,259.1z"/>
</g>
<g id="blue">
	<path class="st1" d="M232.3,231.3C229,266.8,275,321,352,295c-82,33-123.5-0.2-133.3-30c-3,16,11.7,55,74,53.7
		c-79.7,15-110-35.7-97.3-68L232.3,231.3z"/>
	<ellipse class="st1" cx="372.4" cy="54.6" rx="3.6" ry="3.8"/>
</g>
<g id="red">
	<path class="st2" d="M374.9,416.6c-0.5-3.2-13.8-1.5-23.6-0.7c5-2.4,7.3-6,7.3-6s2.2-1.4,4.7,1c0.2-0.7,0.1-1.6-1.3-2.5
		c-1.4-1-3.8-0.8-3.8-0.8s-1.2-1.7-3.6-1.5c-1.7,0.2-22.3,9.7-34.5-1.8c-3.5,2.2-7.3,3.1-12.1,2.6c5.6,8.8-18.5,6.3-22.8,6.9
		c-4.2,0.6-4,5.2-4,5.2s0.5-0.3,1.5-1.6c1.9-1.1,1.1,1.3,4.6,3s21.5-0.1,25.7,0.9c4.1,0.9,5,3.3,6.9,5.9c2,2.6,5.2,4.8,8.5,5.9
		c1,0.3-2,3.5-2,3.5s4.9,0,7-3.7c1.6-3.4-1.8-9-1.8-9s43.7,1.3,44.3-3c0.1-1.4,1.9-2,7.5,1.6C381.1,416.8,377.2,416.9,374.9,416.6z"
		/>
	<path class="st2" d="M260,414.8c-2-1.9-4.4-2.1-5.2-2.2c-0.8-1.5-4-1.8-4-1.8s-1.1-1-2.7-1.5c-1-0.3-10,0.7-12.5-2
		c-3.1-3.4-6-8.7-7.6-11.8c-1.2-2.3-0.4-5.9,1.4-9.9c-1.4-0.6-2.9-1.6-4.4-3.4c-1.6-1.8-2.9-3.7-4-5.7c-1.6,2.1-2.9,3.5-3.6,3.4
		c-2.4-0.1-11.9-15.5-14.7-18.6c-2.9-3.2-6.6-0.5-6.6-0.5s1.6-0.1,2.6,0.2c2.3,0.8-0.4,2.5-0.4,5.7c0.6,4.1,11.8,17.9,13.4,21.9
		c1.5,4,0,6-1.1,9c-1.1,3.1-0.4,9.1-0.4,10.2c0,2-2.9,0.5-3.9,0.4c0.8,2.5,5,4.4,7.2,3.8c2.9-0.8,6.2-6.4,6.2-6.4s4.7,6.3,10.9,12.1
		c2.5,2.4,16.1,4.5,28.5,4.5c5.8,0,5-1,5.1-1.4c1,0,2.8,0.8,5.8,2.7c0.6-0.5-0.1-3.8-2.7-6.8C264.4,413.9,260,414.8,260,414.8z"/>
</g>
</svg>
