<svg id="Layer_1" data-name="Layer 1" xmlns="http://www.w3.org/2000/svg" viewBox="0 0 208.59 63.67"><path d="M164.48,35.87c-.5.1-.9.15-1.14.18-.78.1-3.94,1.16-5.31,1.36a31.91,31.91,0,0,0-6.89,2.92,1.35,1.35,0,0,0-.29,1.19,1.81,1.81,0,0,0-.7,1.72c0,1.36,4.27,1.42,4.27,1.42l.41.2a20.16,20.16,0,0,0,3,.37l.17.1a9.39,9.39,0,0,0,1.89.35l-.18.18c4.54.29,9.53.27,13.42.27A15.31,15.31,0,0,1,165.2,42c-1.88-1.84-1.54-4.21-.75-6.11" transform="translate(0 0)"/><path d="M197.91,4.1a1.22,1.22,0,0,1-1.27,1.11,1.18,1.18,0,0,1-.94-1.38h0A1.2,1.2,0,0,1,197,2.71a1.18,1.18,0,0,1,.93,1.38h0m10.18,24c-.38-.49-.4-1.33-.12-1a1.71,1.71,0,0,0,.46.43L208.2,27a11.88,11.88,0,0,1-.53-1.66c-.06-.21-.12-.49-.18-.8.21-5.87.15-14.07-1.54-17.89-3.46-7.81-9.8-6.87-11.82-6.36a4.24,4.24,0,0,0-.61.17h0a.52.52,0,0,0-.28.13,5.35,5.35,0,0,0-1.32,1,2,2,0,0,0-.57,1.22.5.5,0,0,0-.09.69l0,0a3,3,0,0,1-.11.66,11.22,11.22,0,0,1,2,1.63,1,1,0,0,1-.4,1.36l-.09,0c-.57.21-.88-.34-.88-1a2,2,0,0,0-.73-1.86.76.76,0,0,1-.37.26,8.34,8.34,0,0,0-1.15.69.87.87,0,0,0,0,.67c-.67.92-1,1.94-.69,2.28a7.69,7.69,0,0,1,2.74-.73c1.12,0,2.32.49,2.32,3a11.91,11.91,0,0,1-1.61,4.31,1.34,1.34,0,0,0-.6,1.11l-.18.33c-.21.18-.64.55-1.46,1.36a7.17,7.17,0,0,0-1.43,2.1.91.91,0,0,0,0,.93h0a27.72,27.72,0,0,1-1.93,2.12A14.7,14.7,0,0,1,196.2,27c4.23,4.12,4.19,9.08,2,11.2,0,0,7-6.86,8.9-6.86,0,0,.1-1,.19-2.54,0-.36.1-.87.59-.47a3.69,3.69,0,0,0,.71.48s-.1-.15-.48-.64" transform="translate(0 0)"/><path d="M196.14,3.93a.6.6,0,1,0,.61-.59h0a.58.58,0,0,0-.6.58h0" transform="translate(0 0)"/><path d="M193.55,41.44s-9,4.78-16.23-2.24c-3.14-3-3.54-5.7-3-7.72a54.4,54.4,0,0,0-5.53,2.71l-.49.29a6.87,6.87,0,0,0,.45,5.77c1.18,2.15,5.06,6.7,15.34,4.89,0,0-6.14.46-9.75-3.06a8,8,0,0,1-2.51-5.46,6.73,6.73,0,0,0,.83,1.08c.35.38,9.37,10.52,20.9,3.72" transform="translate(0 0)"/><path d="M199.93,60.44s0-.1-.5-.17a27.27,27.27,0,0,0-2.86.18s.43-.28.82-.49a.88.88,0,0,0,.46-.41h.27a.38.38,0,0,1,.39.14.51.51,0,0,0-.21-.41.78.78,0,0,0-.56-.09,1.42,1.42,0,0,0-.61-.28c-.28,0-2.53.85-3.92.72a2.59,2.59,0,0,1-1.63-1,1.84,1.84,0,0,1-.83.37,5.15,5.15,0,0,1-1.11,0,1.19,1.19,0,0,1,.14.76c-.23.3-3.12.23-3.8.33a.78.78,0,0,0-.64.82.92.92,0,0,0,.23-.25.36.36,0,0,1,.44-.06,1.89,1.89,0,0,0,.31.53c.18.19,3.45,0,4.12.14a1.7,1.7,0,0,1,1.11.93,6.82,6.82,0,0,0,1.28,1c.14.1-.23.42-.23.42h.21a2.17,2.17,0,0,0,.91-.54.59.59,0,0,0-.09-.57l-.21-.84s5.46.07,6.38-.06.94-.38.94-.38H201a1.85,1.85,0,0,1,.76.25,1.82,1.82,0,0,0-.67-.94,1.2,1.2,0,0,0-1.16-.09" transform="translate(0 0)"/><path d="M178.72,60.27s0-.1-.45-.27a13.44,13.44,0,0,0-2.28-.22,1.24,1.24,0,0,0,.93.45c.43-.11.42-.3.42-.3h.27a.21.21,0,0,1,.19.24.13.13,0,0,1,0,.06.5.5,0,0,0-.12-.44.78.78,0,0,0-.53-.21.73.73,0,0,0-.37-.19c-.16,0-1.6.11-2-.31a8.69,8.69,0,0,1-1.23-1.84,1.9,1.9,0,0,1,.22-1.54,2.36,2.36,0,0,1-.72-.53,4.67,4.67,0,0,1-.64-.89,1.22,1.22,0,0,1-.57.53c-.38,0-1.91-2.42-2.37-2.92a.82.82,0,0,0-1.06-.07,1,1,0,0,0,.34.06.35.35,0,0,1,.29.32,2.16,2.16,0,0,0-.29.54c-.06.25,1.9,2.81,2.15,3.43a1.59,1.59,0,0,1-.18,1.42,6.31,6.31,0,0,0-.2,1.62c0,.17-.49,0-.49,0l.14.16a2.15,2.15,0,0,0,1,.44.6.6,0,0,0,.44-.38l.61-.63s.95,1.11,1.76,1.9c.39.38,2.59.71,4.58.71.94,0,.82-.22.82-.22h.25a1.7,1.7,0,0,1,.68.41,1.85,1.85,0,0,0-.44-1.07,1.18,1.18,0,0,0-1.1-.32" transform="translate(0 0)"/><path d="M180,51a7.8,7.8,0,0,0,1.46-.09A4.22,4.22,0,0,0,180,51" transform="translate(0 0)"/><path d="M205.27,37.08a63.71,63.71,0,0,1-12.55,8.25A40.05,40.05,0,0,1,174.27,49c-1.19,0-1.56-.64-1.5-.84s.08-.21-.12,0c-1.1.94-3.64,1.72-4,1a6.1,6.1,0,0,1,1.51-2.3c.16-.18.06-.16.06-.16s-4.58,3.41-5.71,2.31a1.58,1.58,0,0,1,.07-2.13c.13-.18,0-.18,0-.18s-6.83,5.83-8.28,4.42c-.73-.71,1.53-3.25,2.55-4.38.37-.41.21-.33.21-.33-.37.3-2.07,2.09-3.83,3.81s-7.46,5.07-7.72,5.22a1.19,1.19,0,0,0-.31.56,2,2,0,0,0-.64.8c.65,0,1.29,0,1.94,0,1,0,14.22-6.77,15.25-7,.84-.15,7.44.72,8.25.8a20.39,20.39,0,0,0,2.2.22V51a7.45,7.45,0,0,1-1.38,2.79,2,2,0,0,0,.49.85,2.22,2.22,0,0,0,.7.55,11.54,11.54,0,0,1,2.86-2.76A9.13,9.13,0,0,1,180,51a4.48,4.48,0,0,1,1.46-.09h0c.6-.06,1.21-.14,1.81-.23h0a4.57,4.57,0,0,0,.77,2.63A13.42,13.42,0,0,0,187,56a10,10,0,0,1,2.29,2.39,1.7,1.7,0,0,0,1,0,7.43,7.43,0,0,0,.76-.35,21.13,21.13,0,0,1-1.8-4.6,6.38,6.38,0,0,1,0-4.53h0a44.76,44.76,0,0,0,15.85-11.8" transform="translate(0 0)"/><path d="M120.91,45.55v.54h1.66V54h-1.66v.54h7.24V51.61h-.58V52.8a1.27,1.27,0,0,1-.32.85,1.33,1.33,0,0,1-1.07.37h-3V46.1h1.72v-.54h-4Zm-5.33,5.58H112l1.72-5Zm-1.8-6.53L110.43,54h-.72v.54h2.72V54H111l.81-2.34h3.92l.85,2.34h-1.4v.54H118V54h-.72Zm-13.2,1v.54h.94l2.61,8.64H105l2.61-8.64h.94v-.59H105.7v.54H107l-2.46,8-2.46-8h1.31v-.54h-2.83ZM92,45.6v.54h2.46v7.92H92v.54h5.49V54H95V46.09h2.45v-.54H92Zm-4.9,9V54H85V46.09h1.42a4.09,4.09,0,0,1,.7,0,.76.76,0,0,1,.4.2.83.83,0,0,1,.18.42,4.21,4.21,0,0,1,0,.71v1h.58v-3H81.11v3h.58v-1c0-.24,0-.47,0-.71a.81.81,0,0,1,.22-.38.7.7,0,0,1,.4-.2,4.09,4.09,0,0,1,.7,0h1.43v7.92h-2v.54h4.62ZM77.6,51a2.61,2.61,0,0,0-.92-.76,6.4,6.4,0,0,0-1.19-.47,10.66,10.66,0,0,1-1.19-.44,2.84,2.84,0,0,1-.92-.61,1.57,1.57,0,0,1-.16-1.8,1.64,1.64,0,0,1,.55-.59,2.46,2.46,0,0,1,.75-.3,3.75,3.75,0,0,1,.82-.1,2.8,2.8,0,0,1,1,.17,1.29,1.29,0,0,1,.7.62,1.47,1.47,0,0,1,.18.65v.68l.57-.08c0-.21,0-.43,0-.64a2.15,2.15,0,0,1,0-.62l.09-1.38-.57-.11-.09.69a3.37,3.37,0,0,0-.92-.38,4.22,4.22,0,0,0-1-.13,3.41,3.41,0,0,0-1,.15,3.07,3.07,0,0,0-.91.44,2.2,2.2,0,0,0-.65.74,2.15,2.15,0,0,0-.22,1A2,2,0,0,0,72.79,49a2.62,2.62,0,0,0,.92.73,5.68,5.68,0,0,0,1.19.44,8.36,8.36,0,0,1,1.19.41,2.7,2.7,0,0,1,.92.65,1.92,1.92,0,0,1,.17,2,1.85,1.85,0,0,1-.52.56,2,2,0,0,1-.7.31,2.78,2.78,0,0,1-.76.1,3.53,3.53,0,0,1-1.07-.13,1.65,1.65,0,0,1-.69-.37,1.44,1.44,0,0,1-.4-.58,3.78,3.78,0,0,1-.21-.8l-.08-.55-.55.07a6.18,6.18,0,0,1,.12.62,3.31,3.31,0,0,1,0,.63l-.13,1.52.55.08.08-.71a3,3,0,0,0,1.08.54,4.4,4.4,0,0,0,1.2.17,4,4,0,0,0,1.13-.17,3,3,0,0,0,.92-.49,2.39,2.39,0,0,0,.63-.71A2.45,2.45,0,0,0,77.6,51m-9,3.6v-2.7H68v.35a6.91,6.91,0,0,1,0,.91.94.94,0,0,1-.21.55.92.92,0,0,1-.53.28,5.61,5.61,0,0,1-1,.07h-2.7V49.9H66v1.43h.58V48.05H66v1.28H63.54V46.08H66.3a3.51,3.51,0,0,1,.79.06.82.82,0,0,1,.44.23.88.88,0,0,1,.19.49,5.75,5.75,0,0,1,0,.83v.22h.58V45.54H61.41v.54H63V54H61.41v.54h7.2Zm-17.18-9v.54h1.5V54h-1.5v.54H56.2V54H53.5V50.14H56v1.47h.58V48.33H56v1.3H53.51V46.09h2.76a3.51,3.51,0,0,1,.79.06.77.77,0,0,1,.44.24,1,1,0,0,1,.19.5,5.47,5.47,0,0,1,0,.81v.22h.58V45.55H51.43ZM41.91,54a2.31,2.31,0,0,1-.91-.73A3.88,3.88,0,0,1,40.33,52a7.61,7.61,0,0,1,0-3.87A3.5,3.5,0,0,1,41,46.84a2.68,2.68,0,0,1,.92-.71,2.49,2.49,0,0,1,2,0,2.46,2.46,0,0,1,.92.71,3.65,3.65,0,0,1,.67,1.28,6.33,6.33,0,0,1,.26,1.93A6.06,6.06,0,0,1,45.51,52a3.61,3.61,0,0,1-.67,1.27,2.46,2.46,0,0,1-.92.71,2.49,2.49,0,0,1-2,0m2.21.52a3,3,0,0,0,1.13-.79,4.26,4.26,0,0,0,.84-1.44,7.57,7.57,0,0,0,0-4.42,4.26,4.26,0,0,0-.84-1.44,3.21,3.21,0,0,0-1.13-.79,3.29,3.29,0,0,0-1.19-.28,3.46,3.46,0,0,0-1.19.24,3,3,0,0,0-1.13.79,4.26,4.26,0,0,0-.84,1.44,7.57,7.57,0,0,0,0,4.42,4.26,4.26,0,0,0,.84,1.44,3,3,0,0,0,1.13.79,3.07,3.07,0,0,0,2.38,0m-12.92-8.9v.54h2.46V54H31.21v.54H36.7V54H34.25V46.09H36.7v-.54Zm-8.42.72,1.27-.18a2.7,2.7,0,0,1,1.26.11,2.46,2.46,0,0,1,1.08.71,4,4,0,0,1,.75,1.4,7.1,7.1,0,0,1,.28,2.15,5.3,5.3,0,0,1-.24,1.68,3.17,3.17,0,0,1-.66,1.19,2.23,2.23,0,0,1-1,.62,2.66,2.66,0,0,1-1.19.1l-1.59-.18v-7.6h0Zm-.58,7.56L21,54v.54l.69-.11a3.67,3.67,0,0,1,.74-.11,5.55,5.55,0,0,1,1,.09,5.55,5.55,0,0,0,1,.09,5.3,5.3,0,0,0,1.25-.17,3,3,0,0,0,1.19-.65,3.37,3.37,0,0,0,.88-1.32,6.08,6.08,0,0,0,.35-2.2,7.15,7.15,0,0,0-.24-1.84,4.33,4.33,0,0,0-.68-1.48,3.41,3.41,0,0,0-1.17-1,3.68,3.68,0,0,0-1.69-.36,5.55,5.55,0,0,0-1,.09,4.6,4.6,0,0,1-.91.09,3.23,3.23,0,0,1-.69-.07l-.6-.11-.12.6,1.21.18Zm-7-8.28v.54h1.12v5.7a2.7,2.7,0,0,1-.51,1.86,2.13,2.13,0,0,1-1.6.54,2.08,2.08,0,0,1-1.6-.54,2.7,2.7,0,0,1-.51-1.86v-5.7h1.12v-.54H10.45v.54H11.5V52a2.81,2.81,0,0,0,.67,2.13,2.89,2.89,0,0,0,2,.63,2.84,2.84,0,0,0,2-.63A2.81,2.81,0,0,0,16.84,52V46.09h1v-.54H15.21ZM5.87,51.13H2.33l1.72-5ZM4.06,44.6.72,54H0v.54H2.71V54H1.31l.81-2.34H6L6.85,54H5.5v.54H8.25V54H7.53Z" transform="translate(0 0)"/><path d="M123.51,29.55v.54h1.67V38h-1.67v.54h7.25V35.61h-.58V36.8a1.33,1.33,0,0,1-.31.85,1.37,1.37,0,0,1-1.07.37h-3V30.1h1.72v-.54h-4Zm-5.32,5.58h-3.54l1.73-5Zm-1.8-6.53L113.05,38h-.72v.54H115V38h-1.39l.81-2.34h3.92L119.2,38h-1.4v.54h2.75V38h-.72ZM109,30.09h1v-.54h-3v.54h1.46v7.5h0l-4.54-8H102v.54h1.14v7.92H102v.54h3.13V38h-1.41v-7.6h0l4.62,8.14H109V30.09ZM94.8,38a2.54,2.54,0,0,1-.92-.7A3.88,3.88,0,0,1,93.21,36a6.42,6.42,0,0,1-.21-2,6.32,6.32,0,0,1,.25-1.93,3.5,3.5,0,0,1,.67-1.28,2.54,2.54,0,0,1,.92-.7,2.49,2.49,0,0,1,2,0,2.54,2.54,0,0,1,.92.7,3.83,3.83,0,0,1,.67,1.28,7.69,7.69,0,0,1,0,3.87,3.61,3.61,0,0,1-.67,1.27,2.52,2.52,0,0,1-1.94.92,2.46,2.46,0,0,1-1-.21m2.22.52a3,3,0,0,0,1.13-.79A4.24,4.24,0,0,0,99,36.26a6.38,6.38,0,0,0,.33-2.21A6.38,6.38,0,0,0,99,31.84a4.26,4.26,0,0,0-.84-1.44A3.21,3.21,0,0,0,97,29.61a3.34,3.34,0,0,0-1.16-.28,3.46,3.46,0,0,0-1.19.24,3,3,0,0,0-1.13.79,4.26,4.26,0,0,0-.84,1.44,7.57,7.57,0,0,0,0,4.42,4.26,4.26,0,0,0,.84,1.44,3.21,3.21,0,0,0,1.13.79,3.07,3.07,0,0,0,2.38,0m-12.93-8.9v.54h2.46V38H84.13v.54h5.49V38H87.17V30.09h2.45v-.54Zm-4.9,9V38h-2V30.09h1.42a4.09,4.09,0,0,1,.7,0,.7.7,0,0,1,.4.2.83.83,0,0,1,.18.42,4.21,4.21,0,0,1,0,.71v1h.58v-3H73.28v3h.58v-1c0-.24,0-.47,0-.71a.81.81,0,0,1,.22-.38.7.7,0,0,1,.4-.2,4.09,4.09,0,0,1,.7,0h1.43v7.92h-2v.54h4.63ZM68.57,35.13H65l1.73-5Zm-1.8-6.53L63.42,38H62.7v.54h2.71V38H64l.81-2.34h3.92L69.58,38h-1.4v.54h2.75V38h-.71Zm-7.35,1.49h1v-.54h-3v.54h1.46v7.5h0l-4.54-8h-2v.54H53.5v7.92H52.36v.54H55.5V38H54.09v-7.6h0l4.62,8.14h.69V30.09h0Zm-15.84,0h1.76a2.93,2.93,0,0,1,.78.1,2.3,2.3,0,0,1,.67.32,1.91,1.91,0,0,1,.47.55,1.63,1.63,0,0,1,.18.78,1.65,1.65,0,0,1-1,1.66,3.14,3.14,0,0,1-1,.26,9.42,9.42,0,0,1-1.06.06h-.79V30.13h0Zm6,7.88h-1L46,34.22a2.86,2.86,0,0,0,1.52-.81,2.23,2.23,0,0,0,.58-1.61,2,2,0,0,0-.23-1,2,2,0,0,0-.58-.71,2.59,2.59,0,0,0-.79-.41,3,3,0,0,0-.89-.13,8.24,8.24,0,0,0-1.22.06,8.28,8.28,0,0,1-1.22,0l-1.41-.06v.54l1.24.07V38H41.73v.54H45V38H43.58V34.33h1.79l2.76,4.23h1.41V38Zm-11,.54v-2.7H38v.35a6.91,6.91,0,0,1,0,.91,1,1,0,0,1-.21.56,1,1,0,0,1-.53.28,5.61,5.61,0,0,1-1,.07h-2.7V33.91H36v1.42h.58V32.06H36v1.27H33.5V30.1h2.76a3.51,3.51,0,0,1,.79.06.82.82,0,0,1,.44.23,1,1,0,0,1,.19.49,5.75,5.75,0,0,1,0,.83v.22h.62V29.56H31.37v.54h1.54V38H31.37v.54h7.21ZM27,38.55V38H25V30.09h1.4a4.09,4.09,0,0,1,.7,0,.7.7,0,0,1,.4.2.83.83,0,0,1,.18.42,4.21,4.21,0,0,1,0,.71v1h.62v-3H21.06v3h.58v-1c0-.24,0-.47,0-.71a.81.81,0,0,1,.22-.38.7.7,0,0,1,.4-.2,4.09,4.09,0,0,1,.7,0h1.43v7.92h-2v.54H27ZM17,30.09h1v-.54H15v.54h1.46v7.5h0l-4.54-8H10v.54h1.14v7.92H10v.54h3.14V38H11.71v-7.6h0l4.62,8.14H17V30.09ZM1.38,29.55v.54H3.84V38H1.38v.54H6.87V38H4.42V30.09H6.87v-.54Z" transform="translate(0 0)"/><path d="M116.41,10.55v4.5H118V13.33a5.29,5.29,0,0,1,0-.8.54.54,0,0,1,.13-.32.47.47,0,0,1,.29-.14,3.29,3.29,0,0,1,.77-.06h1.36v9.1h-2.5v1.42h6.56v-1.4h-2.52V12h1.38a3.29,3.29,0,0,1,.77.06.47.47,0,0,1,.29.14,1,1,0,0,1,.12.32,3.57,3.57,0,0,1,0,.8v1.7h1.54v-4.5h-9.83Zm-7.14,5a4.67,4.67,0,0,1-.89-.38,2.07,2.07,0,0,1-.67-.58,1.48,1.48,0,0,1-.26-.89,1.31,1.31,0,0,1,.24-.81,1.94,1.94,0,0,1,.6-.54,2.8,2.8,0,0,1,.79-.3,3.72,3.72,0,0,1,.81-.09,2.12,2.12,0,0,1,1.08.22,1.49,1.49,0,0,1,.56.58,2,2,0,0,1,.21.84,4.91,4.91,0,0,0,.07,1l1.52-.2c-.07-.47-.12-.83-.15-1.1a6.13,6.13,0,0,1-.05-.74l.18-2.1-1.46-.26-.1.7a3.52,3.52,0,0,0-1-.31,5.55,5.55,0,0,0-1-.09,5,5,0,0,0-1.39.2,3.93,3.93,0,0,0-1.25.61,3.08,3.08,0,0,0-.9,1,2.85,2.85,0,0,0-.34,1.43,3.09,3.09,0,0,0,.3,1.43,3,3,0,0,0,.78,1,4.06,4.06,0,0,0,1.07.61c.39.15.77.28,1.13.39s.77.24,1.1.36a4.65,4.65,0,0,1,.87.42,1.59,1.59,0,0,1,.57.61,2,2,0,0,1,.2.93,1.56,1.56,0,0,1-.2.82,1.82,1.82,0,0,1-.51.56,2.14,2.14,0,0,1-.72.33,3.32,3.32,0,0,1-.83.11,4.38,4.38,0,0,1-1.19-.16,1.44,1.44,0,0,1-.72-.47,2.43,2.43,0,0,1-.42-.89,14.11,14.11,0,0,1-.29-1.44l-1.5.2a10.13,10.13,0,0,1,.2,1.1c0,.25,0,.49,0,.74l-.2,2.22,1.46.2.08-.62a5.05,5.05,0,0,0,1.2.43,5.92,5.92,0,0,0,1.26.13,5.17,5.17,0,0,0,1.51-.23,3.74,3.74,0,0,0,1.24-.67,3.41,3.41,0,0,0,.85-1.07,3.09,3.09,0,0,0,.32-1.43,3,3,0,0,0-.31-1.45,3.5,3.5,0,0,0-.79-1,4.11,4.11,0,0,0-1.06-.64q-.58-.24-1.14-.42l-.92-.29m-11.9-2.21L99,17.75H95.87Zm0-4.1L93.15,21.13h-1v1.42h4V21.13h-1.5l.7-2h4.08l.72,2H98.69v1.42h4V21.13h-1Zm-13,11.82a2.69,2.69,0,0,1-1-.77,4.15,4.15,0,0,1-.74-1.45,8.72,8.72,0,0,1,0-4.59,4.2,4.2,0,0,1,.74-1.46,2.7,2.7,0,0,1,4.2,0,4.06,4.06,0,0,1,.75,1.46,8.72,8.72,0,0,1,0,4.59,4.15,4.15,0,0,1-.73,1.49,2.69,2.69,0,0,1-1,.77,3.2,3.2,0,0,1-1.1.25,3.45,3.45,0,0,1-1.1-.25m2.73-10.47a4.68,4.68,0,0,0-1.65-.3,4.77,4.77,0,0,0-1.63.32,3.92,3.92,0,0,0-1.55,1.08,5.89,5.89,0,0,0-1.14,1.95,8.6,8.6,0,0,0-.44,2.89,8.54,8.54,0,0,0,.44,2.88,5.68,5.68,0,0,0,1.14,1.88,4.12,4.12,0,0,0,1.55,1.09,4.56,4.56,0,0,0,1.63.33h0a4.58,4.58,0,0,0,1.6-.29,4,4,0,0,0,1.6-1.13,5.75,5.75,0,0,0,1.14-1.94,8.54,8.54,0,0,0,.44-2.88,8.6,8.6,0,0,0-.44-2.89,5.89,5.89,0,0,0-1.14-1.95,3.92,3.92,0,0,0-1.55-1.08m-10.86,8a3.25,3.25,0,0,1-.59,2,2.42,2.42,0,0,1-1.87.72,2.7,2.7,0,0,1-1.51-.43,3.43,3.43,0,0,1-1-1.11,5.42,5.42,0,0,1-.6-1.55,7.42,7.42,0,0,1,0-3.38,5.07,5.07,0,0,1,.55-1.51,3.33,3.33,0,0,1,1-1.08,2.83,2.83,0,0,1,1.55-.42A3.31,3.31,0,0,1,74.8,12a1.58,1.58,0,0,1,.68.46,1.84,1.84,0,0,1,.37.77,8,8,0,0,1,.2,1.09v.46l1.48-.24-.08-1.66v-.14a4.37,4.37,0,0,1,.06-.72,3.35,3.35,0,0,1,.07-.44,1.82,1.82,0,0,1,.11-.4l.14-.4-1.42-.46-.12.38-.08.26a5.7,5.7,0,0,0-2.5-.58,4.73,4.73,0,0,0-3.28,1.3,5.65,5.65,0,0,0-1.17,1.9,8,8,0,0,0-.45,2.86,8.38,8.38,0,0,0,.45,2.9,5.87,5.87,0,0,0,1.15,2,4.54,4.54,0,0,0,3.26,1.46h0a4.87,4.87,0,0,0,2.16-.48,6.33,6.33,0,0,0,1.78-1.26l.12-.12V18.17H76.19Zm-23.7-6.34,1.22-.18h.46a3,3,0,0,1,1.2.26,2.74,2.74,0,0,1,1,.85,4.48,4.48,0,0,1,.72,1.55,8.93,8.93,0,0,1,.29,2.36,6.55,6.55,0,0,1-.25,1.82,3.45,3.45,0,0,1-.62,1.24,2.38,2.38,0,0,1-.92.71,2.93,2.93,0,0,1-1.13.23h-.4l-1.6-.18V12.25Zm3.73-1.15A5,5,0,0,0,54,10.61a6.11,6.11,0,0,0-1.35.12,4.79,4.79,0,0,1-1.07.1,4.11,4.11,0,0,1-.78-.07l-.8-.15-.4-.06L49.43,12l1.57.22v8.62l-1.58.24.24,1.44H50a4.54,4.54,0,0,0,.86-.14,4.41,4.41,0,0,1,.73-.08,6.62,6.62,0,0,1,1.17.11,7.69,7.69,0,0,0,1.27.11,6.64,6.64,0,0,0,1.66-.22,4,4,0,0,0,1.62-.89,4.54,4.54,0,0,0,1.19-1.77,7.74,7.74,0,0,0,.46-2.9,9.35,9.35,0,0,0-.28-2.36,5.84,5.84,0,0,0-.9-2,4.16,4.16,0,0,0-1.59-1.35m-16.57,1,.89-.07h.89a2.88,2.88,0,0,1,1.56.44,1.47,1.47,0,0,1,.64,1.32,2.06,2.06,0,0,1-.28,1.11,1.73,1.73,0,0,1-.72.59,3.26,3.26,0,0,1-1.1.29,10.86,10.86,0,0,1-1.28.07h-.6V12.06Zm5.92,9-2.72-4.12a3.8,3.8,0,0,0,1.71-1.19,3.09,3.09,0,0,0,.65-2.07,3.16,3.16,0,0,0-.33-1.35,3.06,3.06,0,0,0-.82-1A3.51,3.51,0,0,0,43,10.7a3.89,3.89,0,0,0-1.22-.19q-.7,0-1.38.06c-.45,0-.91.06-1.4.06h-.31l-2.16-.08V12l1.58.12v9H36.53v1.42h4.92V21.13h-1.8v-3.8h1.6l3.42,5.26H47V21.13H45.57ZM26.18,10.55V12h3v9.1h-3v1.48H33.8V21.07h-3V12h3V10.55Zm-7.32,0V12h1.58v3.7h-4.3V12h1.58V10.55H13V12h1.6v9.16H13v1.42h4.7V21.13H16.14v-4h4.3v4H18.86v1.42h4.7V21.13H22V12h1.58V10.55H18.86Zm-18.13,0v4.5H2.27V13.33a5.34,5.34,0,0,1,0-.8.6.6,0,0,1,.12-.32.47.47,0,0,1,.29-.14,3.76,3.76,0,0,1,.82,0H4.86v9.1H2.36v1.42H8.92V21.13H6.4V12H7.78a3.29,3.29,0,0,1,.77.06.49.49,0,0,1,.3.14,1,1,0,0,1,.12.32,3.4,3.4,0,0,1,0,.78V15h1.54v-4.5H.73Z" transform="translate(0 0)"/></svg>